<svg xmlns="http://www.w3.org/2000/svg" xmlns:xlink="http://www.w3.org/1999/xlink" width="500" zoomAndPan="magnify" viewBox="0 0 375 374.999991" height="500" preserveAspectRatio="xMidYMid meet" version="1.0"><defs><clipPath id="9b605a1fbd"><path d="M 19.453125 9 L 355.453125 9 L 355.453125 366 L 19.453125 366 Z M 19.453125 9 " clip-rule="nonzero"/></clipPath><clipPath id="f7870ba5e1"><path d="M 185 9 L 355.453125 9 L 355.453125 366 L 185 366 Z M 185 9 " clip-rule="nonzero"/></clipPath></defs><g clip-path="url(#9b605a1fbd)"><path fill="#ef4b62" d="M 19.453125 68.421875 L 185.179688 9.441406 L 355.269531 67.507812 L 327.78125 286.675781 L 185.179688 365.554688 L 44.894531 287.699219 Z M 19.453125 68.421875 " fill-opacity="1" fill-rule="nonzero"/></g><g clip-path="url(#f7870ba5e1)"><path fill="#ef4b62" d="M 355.269531 67.507812 L 185.179688 9.441406 L 185.179688 365.554688 L 327.78125 286.675781 Z M 355.269531 67.507812 " fill-opacity="1" fill-rule="nonzero"/></g><path fill="#262626" d="M 185.4375 51.0625 L 82.164062 280.753906 L 120.703125 279.976562 L 141.511719 228.070312 L 233.878906 228.070312 L 256.492188 280.375 L 293.238281 281.15625 Z M 185.691406 124.800781 L 220.636719 197.769531 L 155.222656 197.769531 L 185.792969 124.800781 Z M 185.691406 124.800781 " fill-opacity="1" fill-rule="nonzero"/></svg>