<svg xmlns="http://www.w3.org/2000/svg" xmlns:xlink="http://www.w3.org/1999/xlink" width="500" zoomAndPan="magnify" viewBox="0 0 375 374.999991" height="500" preserveAspectRatio="xMidYMid meet" version="1.0"><defs><clipPath id="eda6709cd4"><path d="M 11.695312 11.695312 L 363.445312 11.695312 L 363.445312 363.445312 L 11.695312 363.445312 Z M 11.695312 11.695312 " clip-rule="nonzero"/></clipPath></defs><g clip-path="url(#eda6709cd4)"><path fill="#ef4b62" d="M 11.695312 317.964844 C 11.695312 343.003906 31.992188 363.304688 57.03125 363.304688 L 317.964844 363.304688 C 343 363.304688 363.300781 343.003906 363.300781 317.964844 L 363.300781 57.03125 C 363.300781 31.988281 343 11.695312 317.964844 11.695312 L 57.03125 11.695312 C 31.988281 11.695312 11.691406 31.992188 11.691406 57.03125 L 11.691406 317.964844 Z M 11.695312 317.964844 " fill-opacity="1" fill-rule="nonzero"/></g><path fill="#262626" d="M 157.5 167.226562 L 157.5 117.429688 L 201.328125 117.429688 C 205.503906 117.429688 209.527344 117.777344 213.402344 118.472656 C 217.273438 119.167969 220.707031 120.410156 223.6875 122.199219 C 226.667969 123.988281 229.058594 126.476562 230.84375 129.65625 C 232.628906 132.835938 233.523438 136.910156 233.523438 141.878906 C 233.523438 150.828125 230.84375 157.28125 225.476562 161.265625 C 220.117188 165.234375 213.25 167.226562 204.898438 167.226562 Z M 110.6875 81.054688 L 110.6875 293.941406 L 213.855469 293.941406 C 223.386719 293.941406 232.683594 292.746094 241.722656 290.359375 C 250.773438 287.980469 258.824219 284.300781 265.882812 279.328125 C 272.941406 274.355469 278.546875 267.957031 282.722656 260.101562 C 286.898438 252.242188 288.984375 242.960938 288.984375 232.21875 C 288.984375 218.910156 285.757812 207.523438 279.300781 198.085938 C 272.832031 188.636719 263.054688 182.03125 249.921875 178.253906 C 259.46875 173.679688 266.679688 167.816406 271.542969 160.660156 C 276.417969 153.503906 278.847656 144.5625 278.847656 133.828125 C 278.847656 123.890625 277.214844 115.542969 273.929688 108.78125 C 270.648438 102.023438 266.035156 96.609375 260.074219 92.535156 C 254.097656 88.457031 246.941406 85.527344 238.605469 83.738281 C 230.253906 81.949219 221.011719 81.054688 210.875 81.054688 Z M 157.5 257.574219 L 157.5 199.132812 L 208.484375 199.132812 C 218.621094 199.132812 226.765625 201.464844 232.933594 206.136719 C 239.101562 210.804688 242.175781 218.605469 242.175781 229.539062 C 242.175781 235.101562 241.230469 239.675781 239.347656 243.261719 C 237.453125 246.832031 234.925781 249.660156 231.738281 251.75 C 228.566406 253.835938 224.882812 255.335938 220.707031 256.226562 C 216.535156 257.121094 212.164062 257.574219 207.59375 257.574219 Z M 157.5 257.574219 " fill-opacity="1" fill-rule="nonzero"/></svg>