<svg xmlns="http://www.w3.org/2000/svg" xmlns:xlink="http://www.w3.org/1999/xlink" width="500" zoomAndPan="magnify" viewBox="0 0 375 374.999991" height="500" preserveAspectRatio="xMidYMid meet" version="1.0"><defs><g/><clipPath id="acc92f3746"><path d="M 18.851562 18.851562 L 356.148438 18.851562 L 356.148438 356.148438 L 18.851562 356.148438 Z M 18.851562 18.851562 " clip-rule="nonzero"/></clipPath><clipPath id="a5ffc2309c"><path d="M 187.5 18.851562 C 94.359375 18.851562 18.851562 94.359375 18.851562 187.5 C 18.851562 280.640625 94.359375 356.148438 187.5 356.148438 C 280.640625 356.148438 356.148438 280.640625 356.148438 187.5 C 356.148438 94.359375 280.640625 18.851562 187.5 18.851562 Z M 187.5 18.851562 " clip-rule="nonzero"/></clipPath></defs><g clip-path="url(#acc92f3746)"><g clip-path="url(#a5ffc2309c)"><path fill="#ef4b62" d="M 18.851562 18.851562 L 356.148438 18.851562 L 356.148438 356.148438 L 18.851562 356.148438 Z M 18.851562 18.851562 " fill-opacity="1" fill-rule="nonzero"/></g></g><g fill="#262626" fill-opacity="1"><g transform="translate(39.639168, 259.243328)"><g><path d="M 142.9375 -8.546875 C 135.582031 -4.722656 127.910156 -1.84375 119.921875 0.09375 C 111.929688 2.039062 103.597656 3.015625 94.921875 3.015625 C 69.003906 3.015625 48.472656 -4.222656 33.328125 -18.703125 C 18.191406 -33.179688 10.625 -52.820312 10.625 -77.625 C 10.625 -102.488281 18.191406 -122.160156 33.328125 -136.640625 C 48.472656 -151.117188 69.003906 -158.359375 94.921875 -158.359375 C 103.597656 -158.359375 111.929688 -157.382812 119.921875 -155.4375 C 127.910156 -153.5 135.582031 -150.617188 142.9375 -146.796875 L 142.9375 -114.609375 C 135.507812 -119.679688 128.179688 -123.394531 120.953125 -125.75 C 113.734375 -128.113281 106.128906 -129.296875 98.140625 -129.296875 C 83.835938 -129.296875 72.585938 -124.710938 64.390625 -115.546875 C 56.191406 -106.378906 52.09375 -93.738281 52.09375 -77.625 C 52.09375 -61.570312 56.191406 -48.960938 64.390625 -39.796875 C 72.585938 -30.628906 83.835938 -26.046875 98.140625 -26.046875 C 106.128906 -26.046875 113.734375 -27.222656 120.953125 -29.578125 C 128.179688 -31.941406 135.507812 -35.660156 142.9375 -40.734375 Z M 142.9375 -8.546875 "/></g></g></g><g fill="#262626" fill-opacity="1"><g transform="translate(196.232991, 259.243328)"><g><path d="M 2.609375 -116.6875 L 39.90625 -116.6875 L 71.265625 -37.5 L 97.9375 -116.6875 L 135.234375 -116.6875 L 86.15625 11.046875 C 81.226562 24.035156 75.484375 33.113281 68.921875 38.28125 C 62.359375 43.457031 53.691406 46.046875 42.921875 46.046875 L 21.359375 46.046875 L 21.359375 21.5625 L 33.03125 21.5625 C 39.351562 21.5625 43.953125 20.554688 46.828125 18.546875 C 49.710938 16.535156 51.953125 12.921875 53.546875 7.703125 L 54.59375 4.484375 Z M 2.609375 -116.6875 "/></g></g></g></svg>