<svg width="264" height="164" viewBox="0 0 264 164" fill="none" xmlns="http://www.w3.org/2000/svg">
<path d="M251.862 40.6622C251.862 57.7563 236.646 71.6139 217.876 71.6139C215.484 71.6139 213.149 71.3888 210.897 70.9606C195.474 68.0291 183.89 55.5777 183.89 40.6622C183.89 23.568 199.106 9.71045 217.876 9.71045C236.646 9.71045 251.862 23.568 251.862 40.6622Z" fill="#EF4B62"/>
<path d="M217.876 25.4893C227.681 25.4893 235.476 32.3613 235.476 40.6621C235.476 48.9629 227.681 55.8349 217.876 55.835C208.071 55.835 200.275 48.963 200.275 40.6621C200.275 32.3612 208.071 25.4893 217.876 25.4893Z" fill="#262626" stroke="#EF4B62" stroke-width="1.21379"/>
<path d="M224.465 -8.85207e-05C223.712 -8.85207e-05 227.446 9.71026 229.407 14.5654H206.345L210.581 -8.85207e-05H224.465Z" fill="#EF4B62"/>
<path d="M211.287 81.3241C212.04 81.3241 208.306 71.6137 206.345 66.7585H229.407L225.171 81.3241H211.287Z" fill="#EF4B62"/>
<path d="M254.34 15.2404C253.807 14.7079 249.581 24.2144 247.535 29.0342L231.228 12.7268L244.522 5.42268L254.34 15.2404Z" fill="#EF4B62"/>
<path d="M190.634 5.92186C190.101 6.45435 199.608 10.6804 204.427 12.7268L188.12 29.0342L180.816 15.7395L190.634 5.92186Z" fill="#EF4B62"/>
<path d="M181.315 65.9869C181.848 66.5194 186.074 57.0129 188.12 52.1931L204.427 68.5005L191.133 75.8046L181.315 65.9869Z" fill="#EF4B62"/>
<path d="M245.021 75.3054C245.554 74.7729 236.047 70.5469 231.228 68.5005L247.535 52.1931L254.839 65.4877L245.021 75.3054Z" fill="#EF4B62"/>
<path d="M264 47.2512C264 46.4982 254.29 50.2321 249.434 52.1931V29.131L264 33.3669V47.2512Z" fill="#EF4B62"/>
<path d="M171.752 34.073C171.752 34.826 181.462 31.0922 186.317 29.1311V52.1932L171.752 47.9573V34.073Z" fill="#EF4B62"/>
<path d="M176.388 88.7553C176.388 103.361 163.388 115.2 147.351 115.2C145.307 115.2 143.312 115.008 141.388 114.642C128.211 112.137 118.313 101.499 118.313 88.7553C118.313 74.1501 131.314 62.3103 147.351 62.3103C163.388 62.3103 176.388 74.1501 176.388 88.7553Z" fill="#EF4B62"/>
<path d="M147.473 79.3418C154.661 79.3419 160.376 84.3792 160.376 90.4648C160.376 96.5506 154.661 101.589 147.473 101.589C140.284 101.589 134.569 96.5506 134.569 90.4648C134.57 84.3792 140.285 79.3418 147.473 79.3418Z" fill="#262626" stroke="#EF4B62" stroke-width="0.889892"/>
<path d="M152.981 54.0138C152.337 54.0138 155.527 62.3103 157.203 66.4585H137.499L141.118 54.0138H152.981Z" fill="#EF4B62"/>
<path d="M141.721 123.497C142.364 123.497 139.174 115.2 137.499 111.052H157.203L153.584 123.497H141.721Z" fill="#EF4B62"/>
<path d="M178.506 67.0352C178.051 66.5802 174.44 74.7025 172.691 78.8206L158.758 64.8876L170.117 58.647L178.506 67.0352Z" fill="#EF4B62"/>
<path d="M124.075 59.0733C123.62 59.5283 131.742 63.139 135.861 64.8875L121.928 78.8204L115.687 67.4615L124.075 59.0733Z" fill="#EF4B62"/>
<path d="M116.113 110.393C116.568 110.848 120.179 102.725 121.928 98.6074L135.861 112.54L124.502 118.781L116.113 110.393Z" fill="#EF4B62"/>
<path d="M170.544 118.354C170.999 117.899 162.876 114.289 158.758 112.54L172.691 98.6074L178.932 109.966L170.544 118.354Z" fill="#EF4B62"/>
<path d="M186.759 94.3851C186.759 93.7417 178.463 96.9319 174.314 98.6074V78.9033L186.759 82.5224V94.3851Z" fill="#EF4B62"/>
<path d="M107.943 83.1256C107.943 83.769 116.239 80.5788 120.387 78.9033V98.6075L107.943 94.9883V83.1256Z" fill="#EF4B62"/>
<path d="M239.347 116.429C239.347 127.615 229.39 136.684 217.107 136.684C215.542 136.684 214.014 136.536 212.54 136.256C202.448 134.338 194.867 126.19 194.867 116.429C194.867 105.243 204.824 96.175 217.107 96.175C229.39 96.175 239.347 105.243 239.347 116.429Z" fill="#EF4B62"/>
<path d="M217.2 109.219C222.706 109.219 227.083 113.078 227.083 117.739C227.083 122.4 222.706 126.258 217.2 126.258C211.695 126.258 207.317 122.4 207.317 117.739C207.317 113.078 211.695 109.219 217.2 109.219Z" fill="#262626" stroke="#EF4B62" stroke-width="0.681569"/>
<path d="M221.419 89.8209C220.926 89.8209 223.369 96.1752 224.653 99.3523H209.561L212.333 89.8209H221.419Z" fill="#EF4B62"/>
<path d="M212.795 143.038C213.288 143.038 210.845 136.683 209.561 133.506H224.653L221.881 143.038H212.795Z" fill="#EF4B62"/>
<path d="M240.968 99.7937C240.62 99.4452 237.854 105.666 236.515 108.82L225.844 98.1488L234.544 93.3691L240.968 99.7937Z" fill="#EF4B62"/>
<path d="M199.28 93.6959C198.932 94.0443 205.153 96.8098 208.307 98.1489L197.635 108.82L192.856 100.12L199.28 93.6959Z" fill="#EF4B62"/>
<path d="M193.182 133.001C193.531 133.35 196.296 127.129 197.635 123.975L208.307 134.646L199.607 139.426L193.182 133.001Z" fill="#EF4B62"/>
<path d="M234.87 139.099C235.219 138.751 228.998 135.985 225.844 134.646L236.515 123.975L241.295 132.675L234.87 139.099Z" fill="#EF4B62"/>
<path d="M247.29 120.741C247.29 120.248 240.935 122.692 237.758 123.975V108.883L247.29 111.655V120.741Z" fill="#EF4B62"/>
<path d="M186.924 112.117C186.924 112.61 193.278 110.167 196.456 108.884V123.975L186.924 121.203V112.117Z" fill="#EF4B62"/>
<rect x="0.606897" y="23.6689" width="250.648" height="139.586" rx="21.2414" stroke="#EF4B62" stroke-width="1.21379"/>
<rect x="10.3172" y="46.124" width="92.2483" height="15.7793" rx="7.88966" fill="#EF4B62"/>
<rect x="10.6207" y="74.345" width="91.6414" height="15.1724" rx="7.58621" stroke="#EF4B62" stroke-width="0.606897"/>
<path d="M22.0916 91.4161L39.6366 83.3362L39.3391 103.774L33.4605 99.8748L26.6202 109.022L20.9102 104.168L27.9677 95.788L22.0916 91.4161Z" fill="#EF4B62"/>
</svg>
