<svg width="169" height="141" viewBox="0 0 169 141" fill="none" xmlns="http://www.w3.org/2000/svg">
<path d="M54.5 99.5C53 98.5 33.5 31 33.5 31C33.5 31 72.5 34.5 100.5 35.5C128.5 36.5 167.5 31 167.5 31L143.5 99.5C143.5 99.5 56 100.5 54.5 99.5Z" stroke="#EF4B62" stroke-width="2"/>
<path d="M76.667 112.111C85.3709 112.111 92.2227 118.437 92.2227 126C92.2227 133.563 85.3709 139.889 76.667 139.889C67.9629 139.889 61.1113 133.563 61.1113 126C61.1113 118.437 67.9629 112.111 76.667 112.111Z" stroke="#EF4B62" stroke-width="2.22222"/>
<path d="M134.445 112.111C143.149 112.111 150 118.437 150 126C150 133.563 143.149 139.889 134.445 139.889C125.741 139.889 118.889 133.563 118.889 126C118.889 118.437 125.741 112.111 134.445 112.111Z" stroke="#EF4B62" stroke-width="2.22222"/>
<path d="M76.1113 122.111C78.9747 122.111 81.1113 124.198 81.1113 126.556C81.1113 128.913 78.9746 131 76.1113 131C73.2479 131 71.1114 128.913 71.1113 126.556C71.1113 124.198 73.2479 122.111 76.1113 122.111Z" stroke="#EF4B62" stroke-width="2.22222"/>
<path d="M133.889 121C136.752 121 138.889 123.087 138.889 125.445C138.889 127.802 136.752 129.889 133.889 129.889C131.026 129.889 128.889 127.802 128.889 125.445C128.889 123.087 131.026 121 133.889 121Z" stroke="#EF4B62" stroke-width="2.22222"/>
<path d="M27.5 11.0006L24.5 5.99971C21.5 1.99987 14 -0.181981 6 1.99971C1.59998 3.19964 0.666666 9.16735 1.5 11.0006C5.33333 9.66731 18.9 9 20.5 13C29.8333 41.3331 44.1 97.9 48.5 101.5C52.9 105.1 57 107.333 58.5 108C67 108.5 122.5 107.001 149.5 107.001C151.167 107 153.5 107.001 156.5 107.501C158.278 107.797 163 111.5 163.5 113.5" stroke="#EF4B62" stroke-width="2"/>
</svg>
