<svg width="121" height="120" viewBox="0 0 121 120" fill="none" xmlns="http://www.w3.org/2000/svg">
<path d="M118.344 73H3L7 83H116L118.344 76.5V73Z" fill="#EF4B62"/>
<path d="M60.9294 1C93.5142 1 119.929 27.4152 119.929 60C119.929 92.5848 93.5142 119 60.9294 119C28.3446 119 1.92937 92.5848 1.92937 60C1.92937 27.4152 28.3446 1 60.9294 1Z" stroke="#EF4B62" stroke-width="2"/>
<path d="M69 65.0002H2.00001C-2 32.9991 23.5 9.49998 44 3.50029C51.3092 1.36113 65.8333 1.00128 68.5 1.50128L69 65.0002Z" fill="#EF4B62"/>
<path d="M119 55H68.6562L69 65H120V59L119 55Z" fill="#EF4B62"/>
<path d="M95 108H27L39 115L53.5 119L80.5 116.5L91 111L95 108Z" fill="#EF4B62"/>
<path d="M111 91H11L17.5 100H105L110 93L111 91Z" fill="#EF4B62"/>
<path d="M115 36H68L68.3438 46H119.344L117.5 41L115 36Z" fill="#EF4B62"/>
<path d="M102.5 19H68.5L67.3438 28H111.5L108.5 24.5L102.5 19Z" fill="#EF4B62"/>
<path d="M92 10.5L86 7.5L74.5 3L64.5 1.5L63.3438 12H95L92 10.5Z" fill="#EF4B62"/>
<path d="M38.5 10L41.98 19.3283H53.2414L44.1307 25.0935L47.6107 34.4217L38.5 28.6565L29.3893 34.4217L32.8693 25.0935L23.7586 19.3283H35.02L38.5 10Z" fill="#262626"/>
<path d="M53.5 35L56.98 44.3283H68.2414L59.1307 50.0935L62.6107 59.4217L53.5 53.6565L44.3893 59.4217L47.8693 50.0935L38.7586 44.3283H50.02L53.5 35Z" fill="#262626"/>
<path d="M19.5 36L22.98 45.3283H34.2414L25.1307 51.0935L28.6107 60.4217L19.5 54.6565L10.3893 60.4217L13.8693 51.0935L4.75862 45.3283H16.02L19.5 36Z" fill="#262626"/>
</svg>
