<svg xmlns="http://www.w3.org/2000/svg" xmlns:xlink="http://www.w3.org/1999/xlink" width="500" zoomAndPan="magnify" viewBox="0 0 375 374.999991" height="500" preserveAspectRatio="xMidYMid meet" version="1.0"><path stroke-linecap="round" transform="matrix(16.0625, 0, 0, 16.0625, -10.239144, 0)" fill="none" stroke-linejoin="round" d="M 12.000054 3 L 9.000054 3 C 7.343196 3 6.000054 4.343142 6.000054 6 C 6.000054 7.656858 7.343196 9 9.000054 9 M 12.000054 3 L 12.000054 9 M 12.000054 3 L 15.000054 3 C 16.656912 3 18.000054 4.343142 18.000054 6 C 18.000054 7.656858 16.656912 9 15.000054 9 M 12.000054 9 L 9.000054 9 M 12.000054 9 L 15.000054 9 M 12.000054 9 L 12.000054 15 M 9.000054 9 C 7.343196 9 6.000054 10.343142 6.000054 12 C 6.000054 13.656858 7.343196 15 9.000054 15 M 15.000054 9 C 16.656912 9 18.000054 10.343142 18.000054 12 C 18.000054 13.656858 16.656912 15 15.000054 15 C 13.343196 15 12.000054 13.656858 12.000054 12 C 12.000054 10.343142 13.343196 9 15.000054 9 Z M 12.000054 15 L 9.000054 15 M 12.000054 15 L 12.000054 18 C 12.000054 19.656858 10.656912 21.000001 9.000054 21.000001 C 7.343196 21.000001 6.000054 19.656858 6.000054 18 C 6.000054 16.343142 7.343196 15 9.000054 15 " stroke="#ef4b62" stroke-width="2" stroke-opacity="1" stroke-miterlimit="4"/></svg>