<svg xmlns="http://www.w3.org/2000/svg" xmlns:xlink="http://www.w3.org/1999/xlink" width="500" zoomAndPan="magnify" viewBox="0 0 375 374.999991" height="500" preserveAspectRatio="xMidYMid meet" version="1.0"><defs><clipPath id="78dfa265be"><path d="M 0 9.90625 L 358.175781 9.90625 L 358.175781 375 L 0 375 Z M 0 9.90625 " clip-rule="nonzero"/></clipPath></defs><g clip-path="url(#78dfa265be)"><path fill="#ef4b62" d="M 351.121094 176.191406 L 191.726562 16.796875 C 191.179688 16.253906 190.609375 15.734375 190.015625 15.246094 C 189.421875 14.757812 188.804688 14.300781 188.164062 13.871094 C 187.523438 13.445312 186.863281 13.046875 186.183594 12.6875 C 185.503906 12.324219 184.808594 11.992188 184.097656 11.699219 C 183.386719 11.402344 182.664062 11.144531 181.925781 10.921875 C 181.191406 10.699219 180.445312 10.511719 179.6875 10.359375 C 178.933594 10.210938 178.171875 10.097656 177.40625 10.023438 C 176.640625 9.945312 175.871094 9.910156 175.101562 9.910156 C 174.332031 9.910156 173.5625 9.945312 172.796875 10.023438 C 172.03125 10.097656 171.269531 10.210938 170.515625 10.359375 C 169.761719 10.511719 169.015625 10.699219 168.277344 10.921875 C 167.542969 11.144531 166.816406 11.402344 166.105469 11.699219 C 165.394531 11.992188 164.699219 12.324219 164.019531 12.6875 C 163.339844 13.046875 162.683594 13.445312 162.042969 13.871094 C 161.402344 14.300781 160.785156 14.757812 160.1875 15.246094 C 159.59375 15.734375 159.023438 16.253906 158.480469 16.796875 L 125.394531 49.882812 L 167.378906 91.867188 C 177.144531 88.445312 188.324219 90.785156 196.105469 98.566406 C 197.027344 99.488281 197.878906 100.46875 198.664062 101.511719 C 199.449219 102.554688 200.15625 103.648438 200.785156 104.789062 C 201.417969 105.929688 201.964844 107.109375 202.433594 108.328125 C 202.898438 109.546875 203.277344 110.792969 203.566406 112.0625 C 203.859375 113.332031 204.0625 114.621094 204.171875 115.917969 C 204.285156 117.21875 204.304688 118.519531 204.234375 119.820312 C 204.164062 121.125 204.003906 122.414062 203.753906 123.695312 C 203.5 124.976562 203.160156 126.230469 202.734375 127.464844 L 243.203125 167.929688 C 252.992188 164.554688 264.285156 166.734375 272.101562 174.570312 C 272.75 175.21875 273.363281 175.898438 273.945312 176.605469 C 274.527344 177.3125 275.074219 178.050781 275.582031 178.8125 C 276.09375 179.574219 276.5625 180.359375 276.996094 181.167969 C 277.429688 181.976562 277.820312 182.804688 278.171875 183.648438 C 278.523438 184.496094 278.832031 185.359375 279.097656 186.234375 C 279.363281 187.113281 279.585938 188 279.765625 188.898438 C 279.945312 189.800781 280.078125 190.703125 280.167969 191.617188 C 280.257812 192.53125 280.304688 193.445312 280.304688 194.359375 C 280.304688 195.277344 280.257812 196.191406 280.167969 197.105469 C 280.078125 198.015625 279.945312 198.921875 279.765625 199.820312 C 279.585938 200.71875 279.363281 201.609375 279.097656 202.484375 C 278.832031 203.363281 278.523438 204.226562 278.171875 205.070312 C 277.824219 205.917969 277.429688 206.746094 277 207.554688 C 276.566406 208.363281 276.097656 209.148438 275.585938 209.910156 C 275.078125 210.671875 274.53125 211.410156 273.949219 212.117188 C 273.367188 212.824219 272.753906 213.503906 272.105469 214.152344 C 271.457031 214.800781 270.777344 215.414062 270.070312 215.996094 C 269.359375 216.578125 268.625 217.125 267.863281 217.632812 C 267.101562 218.140625 266.316406 218.613281 265.507812 219.042969 C 264.699219 219.476562 263.871094 219.867188 263.023438 220.21875 C 262.175781 220.570312 261.3125 220.875 260.4375 221.144531 C 259.558594 221.410156 258.671875 221.628906 257.773438 221.808594 C 256.871094 221.988281 255.96875 222.121094 255.054688 222.210938 C 254.140625 222.300781 253.226562 222.34375 252.3125 222.34375 C 251.394531 222.34375 250.480469 222.300781 249.566406 222.210938 C 248.65625 222.117188 247.75 221.984375 246.851562 221.804688 C 245.953125 221.625 245.0625 221.402344 244.1875 221.136719 C 243.308594 220.871094 242.449219 220.5625 241.601562 220.210938 C 240.753906 219.859375 239.925781 219.464844 239.117188 219.035156 C 238.308594 218.601562 237.523438 218.128906 236.761719 217.621094 C 236 217.109375 235.265625 216.566406 234.558594 215.984375 C 233.847656 215.402344 233.171875 214.785156 232.523438 214.136719 C 224.308594 205.921875 222.277344 193.828125 226.429688 183.710938 L 188.691406 145.96875 L 188.691406 245.285156 C 191.449219 246.648438 193.917969 248.414062 196.105469 250.578125 C 196.753906 251.226562 197.367188 251.902344 197.949219 252.613281 C 198.53125 253.320312 199.078125 254.054688 199.585938 254.816406 C 200.09375 255.578125 200.566406 256.363281 200.996094 257.171875 C 201.429688 257.980469 201.820312 258.808594 202.171875 259.652344 C 202.523438 260.5 202.828125 261.363281 203.097656 262.238281 C 203.363281 263.117188 203.585938 264.003906 203.761719 264.902344 C 203.941406 265.800781 204.074219 266.707031 204.164062 267.617188 C 204.253906 268.53125 204.300781 269.445312 204.300781 270.359375 C 204.300781 271.277344 204.253906 272.191406 204.164062 273.101562 C 204.074219 274.015625 203.941406 274.917969 203.761719 275.816406 C 203.585938 276.71875 203.363281 277.605469 203.097656 278.480469 C 202.828125 279.359375 202.523438 280.21875 202.171875 281.066406 C 201.820312 281.914062 201.429688 282.742188 200.996094 283.546875 C 200.566406 284.355469 200.09375 285.140625 199.585938 285.902344 C 199.078125 286.664062 198.53125 287.402344 197.949219 288.109375 C 197.367188 288.816406 196.753906 289.496094 196.105469 290.144531 C 195.457031 290.792969 194.78125 291.40625 194.070312 291.988281 C 193.363281 292.570312 192.628906 293.113281 191.867188 293.621094 C 191.105469 294.132812 190.320312 294.601562 189.511719 295.035156 C 188.703125 295.464844 187.875 295.855469 187.03125 296.207031 C 186.183594 296.558594 185.320312 296.867188 184.445312 297.132812 C 183.566406 297.398438 182.679688 297.621094 181.78125 297.800781 C 180.882812 297.980469 179.976562 298.113281 179.066406 298.203125 C 178.152344 298.292969 177.238281 298.335938 176.324219 298.335938 C 175.40625 298.335938 174.492188 298.292969 173.582031 298.203125 C 172.667969 298.113281 171.765625 297.980469 170.863281 297.800781 C 169.964844 297.621094 169.078125 297.398438 168.203125 297.132812 C 167.324219 296.867188 166.464844 296.558594 165.617188 296.207031 C 164.769531 295.855469 163.941406 295.464844 163.132812 295.035156 C 162.328125 294.601562 161.542969 294.132812 160.78125 293.621094 C 160.019531 293.113281 159.28125 292.570312 158.574219 291.988281 C 157.867188 291.40625 157.1875 290.792969 156.539062 290.144531 C 155.890625 289.496094 155.277344 288.816406 154.695312 288.109375 C 154.113281 287.402344 153.566406 286.667969 153.054688 285.90625 C 152.546875 285.144531 152.074219 284.359375 151.644531 283.550781 C 151.210938 282.742188 150.820312 281.914062 150.46875 281.070312 C 150.117188 280.222656 149.808594 279.359375 149.542969 278.484375 C 149.273438 277.605469 149.050781 276.71875 148.875 275.820312 C 148.695312 274.921875 148.558594 274.015625 148.46875 273.101562 C 148.378906 272.191406 148.335938 271.277344 148.335938 270.359375 C 148.335938 269.445312 148.378906 268.53125 148.46875 267.617188 C 148.558594 266.707031 148.695312 265.800781 148.875 264.902344 C 149.050781 264 149.273438 263.113281 149.542969 262.238281 C 149.808594 261.359375 150.117188 260.5 150.46875 259.652344 C 150.820312 258.804688 151.210938 257.976562 151.644531 257.167969 C 152.074219 256.363281 152.546875 255.578125 153.054688 254.816406 C 153.566406 254.054688 154.113281 253.320312 154.695312 252.609375 C 155.277344 251.902344 155.890625 251.222656 156.539062 250.578125 C 159.242188 247.882812 162.246094 245.84375 165.703125 244.472656 L 165.703125 144.234375 C 162.371094 142.867188 159.242188 140.847656 156.539062 138.128906 C 155.5625 137.15625 154.664062 136.113281 153.839844 135.003906 C 153.019531 133.894531 152.28125 132.730469 151.632812 131.515625 C 150.984375 130.296875 150.425781 129.039062 149.964844 127.738281 C 149.5 126.4375 149.132812 125.109375 148.867188 123.753906 C 148.601562 122.398438 148.4375 121.035156 148.371094 119.65625 C 148.308594 118.277344 148.34375 116.898438 148.484375 115.527344 C 148.625 114.152344 148.863281 112.796875 149.203125 111.460938 C 149.546875 110.121094 149.980469 108.816406 150.515625 107.542969 L 109.101562 66.152344 L -0.195312 175.335938 C -0.742188 175.878906 -1.257812 176.449219 -1.746094 177.042969 C -2.234375 177.640625 -2.695312 178.257812 -3.121094 178.898438 C -3.550781 179.539062 -3.945312 180.199219 -4.308594 180.878906 C -4.671875 181.554688 -5.003906 182.25 -5.296875 182.964844 C -5.59375 183.675781 -5.851562 184.398438 -6.074219 185.136719 C -6.300781 185.875 -6.488281 186.621094 -6.636719 187.375 C -6.789062 188.128906 -6.902344 188.890625 -6.976562 189.660156 C -7.050781 190.425781 -7.089844 191.195312 -7.089844 191.964844 C -7.089844 192.734375 -7.050781 193.503906 -6.976562 194.269531 C -6.902344 195.035156 -6.789062 195.796875 -6.636719 196.550781 C -6.488281 197.308594 -6.300781 198.054688 -6.074219 198.792969 C -5.851562 199.527344 -5.59375 200.253906 -5.296875 200.964844 C -5.003906 201.675781 -4.671875 202.371094 -4.308594 203.050781 C -3.945312 203.730469 -3.550781 204.390625 -3.121094 205.03125 C -2.695312 205.667969 -2.234375 206.289062 -1.746094 206.882812 C -1.257812 207.476562 -0.742188 208.046875 -0.195312 208.59375 L 159.210938 367.976562 C 159.753906 368.519531 160.324219 369.035156 160.917969 369.523438 C 161.515625 370.011719 162.132812 370.472656 162.773438 370.898438 C 163.410156 371.328125 164.070312 371.722656 164.75 372.085938 C 165.429688 372.449219 166.125 372.777344 166.835938 373.074219 C 167.546875 373.367188 168.269531 373.625 169.007812 373.851562 C 169.746094 374.074219 170.492188 374.261719 171.246094 374.410156 C 172 374.5625 172.761719 374.675781 173.527344 374.75 C 174.292969 374.824219 175.0625 374.863281 175.832031 374.863281 C 176.601562 374.863281 177.371094 374.824219 178.136719 374.75 C 178.902344 374.675781 179.664062 374.5625 180.417969 374.410156 C 181.175781 374.261719 181.921875 374.074219 182.65625 373.851562 C 183.394531 373.625 184.117188 373.367188 184.828125 373.074219 C 185.539062 372.777344 186.234375 372.449219 186.914062 372.085938 C 187.59375 371.722656 188.253906 371.328125 188.894531 370.898438 C 189.535156 370.472656 190.152344 370.011719 190.746094 369.523438 C 191.339844 369.035156 191.910156 368.519531 192.457031 367.976562 L 351.121094 209.5625 C 351.664062 209.019531 352.179688 208.449219 352.671875 207.851562 C 353.160156 207.257812 353.617188 206.640625 354.046875 206 C 354.472656 205.359375 354.871094 204.699219 355.234375 204.019531 C 355.597656 203.339844 355.925781 202.644531 356.222656 201.933594 C 356.515625 201.222656 356.777344 200.496094 357 199.761719 C 357.222656 199.023438 357.410156 198.277344 357.5625 197.523438 C 357.710938 196.765625 357.824219 196.003906 357.898438 195.238281 C 357.976562 194.472656 358.011719 193.703125 358.011719 192.933594 C 358.011719 192.164062 357.976562 191.394531 357.898438 190.628906 C 357.824219 189.863281 357.710938 189.101562 357.5625 188.34375 C 357.410156 187.589844 357.222656 186.84375 357 186.105469 C 356.777344 185.367188 356.515625 184.644531 356.222656 183.933594 C 355.925781 183.222656 355.597656 182.527344 355.234375 181.847656 C 354.871094 181.167969 354.472656 180.507812 354.046875 179.867188 C 353.617188 179.226562 353.160156 178.609375 352.671875 178.015625 C 352.179688 177.417969 351.664062 176.847656 351.121094 176.304688 " fill-opacity="1" fill-rule="nonzero"/></g></svg>