<svg xmlns="http://www.w3.org/2000/svg" xmlns:xlink="http://www.w3.org/1999/xlink" width="500" zoomAndPan="magnify" viewBox="0 0 375 374.999991" height="500" preserveAspectRatio="xMidYMid meet" version="1.0"><defs><clipPath id="0094b0ea55"><path d="M 18.75 18.75 L 356.25 18.75 L 356.25 356.25 L 18.75 356.25 Z M 18.75 18.75 " clip-rule="nonzero"/></clipPath></defs><g clip-path="url(#0094b0ea55)"><path fill="#ef4b62" d="M 187.5 18.75 C 94.300781 18.75 18.75 94.300781 18.75 187.5 C 18.75 280.699219 94.300781 356.25 187.5 356.25 C 280.699219 356.25 356.25 280.699219 356.25 187.5 C 356.25 94.300781 280.699219 18.75 187.5 18.75 Z M 187.5 343.46875 C 101.363281 343.46875 31.53125 273.636719 31.53125 187.5 C 31.53125 101.363281 101.363281 31.53125 187.5 31.53125 C 273.636719 31.53125 343.46875 101.363281 343.46875 187.5 C 343.46875 273.636719 273.636719 343.46875 187.5 343.46875 Z M 187.5 343.46875 " fill-opacity="1" fill-rule="nonzero"/></g><path fill="#ef4b62" d="M 167.695312 270.214844 C 163.460938 270.621094 160.082031 271.089844 156.6875 271.25 C 137.433594 272.160156 123.175781 264.566406 114.53125 246.867188 C 111.777344 241.230469 108.253906 235.910156 104.585938 230.804688 C 102.378906 227.734375 99.289062 225.273438 96.4375 222.71875 L 96.402344 222.6875 C 94.640625 221.132812 95.417969 218.230469 97.734375 217.839844 C 100.457031 217.382812 102.992188 217.875 105.464844 218.503906 C 113.207031 220.476562 118.175781 225.964844 122.132812 232.527344 C 131.089844 247.375 146.507812 253.566406 163.183594 249.144531 C 166.015625 248.390625 167.261719 247.171875 167.878906 244.085938 C 168.597656 240.484375 169.574219 236.933594 170.625 233.316406 C 170.777344 232.785156 170.878906 232.242188 170.921875 231.6875 C 170.964844 231.136719 170.953125 230.582031 170.886719 230.03125 C 170.816406 229.480469 170.695312 228.945312 170.515625 228.417969 C 170.339844 227.890625 170.109375 227.390625 169.832031 226.910156 C 169.550781 226.429688 169.226562 225.984375 168.855469 225.574219 C 168.484375 225.160156 168.078125 224.789062 167.632812 224.457031 C 167.183594 224.128906 166.710938 223.84375 166.207031 223.613281 C 165.703125 223.378906 165.183594 223.199219 164.640625 223.070312 L 164.546875 223.046875 C 147.246094 218.910156 132.300781 211.199219 122.671875 195.390625 C 117.523438 186.9375 114.972656 177.625 115.105469 167.921875 C 115.253906 156.914062 116.226562 145.882812 117.492188 134.933594 C 118.382812 127.226562 121.953125 120.402344 127.492188 114.859375 C 129.425781 112.929688 129.589844 111.308594 128.65625 108.808594 C 124.839844 98.566406 125.503906 88.304688 128.890625 78.039062 C 129.847656 75.144531 131.203125 74.730469 133.972656 75.601562 C 142.546875 78.300781 148.941406 83.878906 154.5625 90.558594 L 154.621094 90.628906 C 155.328125 91.476562 156.140625 92.203125 157.066406 92.804688 C 157.988281 93.410156 158.980469 93.867188 160.042969 94.171875 C 161.101562 94.476562 162.183594 94.621094 163.289062 94.605469 C 164.390625 94.585938 165.46875 94.40625 166.519531 94.066406 C 184.308594 88.234375 211.296875 88.15625 228.078125 93.929688 C 229.128906 94.285156 230.214844 94.480469 231.328125 94.511719 C 232.441406 94.539062 233.53125 94.402344 234.605469 94.101562 C 235.675781 93.800781 236.679688 93.347656 237.613281 92.742188 C 238.546875 92.136719 239.371094 91.40625 240.085938 90.550781 L 240.140625 90.488281 C 245.769531 83.808594 252.191406 78.273438 260.761719 75.566406 C 263.636719 74.660156 264.859375 75.351562 265.769531 78.144531 C 269.109375 88.414062 269.679688 98.617188 266.066406 108.964844 C 265.554688 110.421875 265.578125 112.953125 266.484375 113.875 C 274.164062 121.664062 277.527344 131.339844 278.378906 141.816406 C 279.203125 151.941406 280.097656 162.238281 279.15625 172.292969 C 276.710938 198.441406 260.8125 213.671875 236.636719 221.242188 C 234.570312 221.886719 232.46875 222.429688 230.324219 222.9375 C 229.765625 223.070312 229.226562 223.257812 228.707031 223.503906 C 228.191406 223.75 227.703125 224.042969 227.246094 224.390625 C 226.789062 224.738281 226.375 225.128906 226 225.5625 C 225.625 225.996094 225.300781 226.464844 225.023438 226.96875 C 224.75 227.46875 224.527344 227.996094 224.363281 228.546875 C 224.195312 229.09375 224.089844 229.652344 224.042969 230.226562 C 223.996094 230.796875 224.007812 231.367188 224.078125 231.933594 C 224.148438 232.503906 224.277344 233.058594 224.46875 233.601562 C 227.761719 243.144531 227.257812 253.339844 227.207031 263.46875 C 227.195312 265.796875 227.1875 268.125 227.183594 270.457031 C 227.179688 271.421875 227.128906 272.378906 227.035156 273.335938 C 226.9375 274.292969 226.796875 275.242188 226.605469 276.1875 C 226.417969 277.128906 226.179688 278.0625 225.902344 278.980469 C 225.621094 279.902344 225.292969 280.804688 224.925781 281.695312 C 224.554688 282.582031 224.144531 283.449219 223.6875 284.296875 C 223.234375 285.144531 222.738281 285.96875 222.203125 286.769531 C 221.667969 287.566406 221.09375 288.339844 220.484375 289.082031 C 219.871094 289.824219 219.226562 290.535156 218.542969 291.214844 C 217.863281 291.894531 217.152344 292.539062 216.40625 293.148438 C 215.664062 293.757812 214.890625 294.328125 214.089844 294.863281 C 213.289062 295.398438 212.464844 295.890625 211.617188 296.34375 C 210.769531 296.796875 209.898438 297.207031 209.011719 297.574219 C 208.121094 297.941406 207.214844 298.265625 206.296875 298.542969 C 205.375 298.820312 204.441406 299.054688 203.5 299.242188 C 202.554688 299.429688 201.605469 299.570312 200.648438 299.664062 C 199.691406 299.757812 198.730469 299.804688 197.769531 299.804688 L 197.105469 299.804688 C 196.144531 299.804688 195.183594 299.757812 194.222656 299.664062 C 193.265625 299.570312 192.3125 299.429688 191.367188 299.242188 C 190.421875 299.050781 189.492188 298.820312 188.570312 298.539062 C 187.648438 298.257812 186.742188 297.933594 185.851562 297.566406 C 184.960938 297.199219 184.089844 296.785156 183.242188 296.332031 C 182.390625 295.878906 181.566406 295.382812 180.765625 294.847656 C 179.964844 294.3125 179.191406 293.742188 178.445312 293.128906 C 177.703125 292.519531 176.988281 291.871094 176.308594 291.191406 C 175.628906 290.507812 174.980469 289.796875 174.371094 289.050781 C 173.757812 288.308594 173.1875 287.535156 172.652344 286.734375 C 172.117188 285.933594 171.621094 285.105469 171.167969 284.257812 C 170.710938 283.40625 170.300781 282.539062 169.933594 281.648438 C 169.5625 280.757812 169.238281 279.851562 168.960938 278.929688 C 168.679688 278.007812 168.445312 277.074219 168.257812 276.128906 C 168.070312 275.1875 167.929688 274.234375 167.835938 273.277344 C 167.742188 272.316406 167.695312 271.355469 167.695312 270.390625 Z M 167.695312 270.214844 " fill-opacity="1" fill-rule="nonzero"/></svg>