<svg xmlns="http://www.w3.org/2000/svg" xmlns:xlink="http://www.w3.org/1999/xlink" width="500" zoomAndPan="magnify" viewBox="0 0 375 374.999991" height="500" preserveAspectRatio="xMidYMid meet" version="1.0"><defs><clipPath id="d35ae29fb6"><path d="M 57.019531 11 L 318 11 L 318 364 L 57.019531 364 Z M 57.019531 11 " clip-rule="nonzero"/></clipPath></defs><g clip-path="url(#d35ae29fb6)"><path fill="#ef4b62" d="M 201.953125 11.777344 C 181.710938 18.914062 176.621094 29.804688 175.121094 39.6875 C 169.902344 35.984375 170.519531 23.851562 170.183594 20.753906 C 165.03125 21.375 150.164062 35.777344 150.851562 53.894531 C 149.472656 54.234375 148.152344 54.652344 146.785156 55.058594 C 142.324219 49.015625 129.574219 33.449219 112.902344 28.097656 C 107.46875 26.554688 101.898438 25.640625 96.476562 25.640625 C 76.574219 25.640625 64.84375 37.519531 64.710938 37.65625 L 59.164062 44.097656 L 67.585938 45.761719 C 67.722656 45.761719 81.726562 48.703125 87.5 57.832031 C 88.460938 59.34375 88.71875 62.351562 89.003906 65.570312 C 89.140625 67.488281 88.75 69.355469 88.398438 71.140625 C 88.125 72.4375 87.832031 73.816406 87.761719 75.179688 C 82.476562 75.410156 78.011719 76.445312 74.375 78.296875 C 69.4375 80.839844 66.074219 84.859375 64.710938 89.941406 C 61.273438 102.4375 72.398438 116.378906 72.816406 116.851562 C 74.113281 119.191406 74.667969 135.933594 71.65625 142.652344 C 71.25 143.613281 70.128906 144.5 68.695312 145.664062 C 68.210938 146.003906 67.746094 146.421875 67.191406 146.824219 C 63 149.976562 56.601562 154.847656 56.601562 165.894531 C 56.601562 181.0625 71.984375 189.308594 84.332031 195.890625 C 86.386719 196.988281 88.316406 198.007812 90.035156 199.035156 C 91.886719 200.128906 98.40625 206.878906 98.40625 216.964844 C 98.40625 221.699219 97.980469 244.195312 95.84375 259.773438 C 87.878906 252.984375 80.605469 242.011719 78.96875 229.71875 C 78.96875 229.71875 58.933594 245.238281 64.839844 278.3125 C 68.410156 298.550781 80.753906 309.941406 97.085938 315.835938 C 103.128906 328.9375 117.257812 347.199219 143.273438 349.878906 C 153.15625 357.976562 166.886719 363.238281 186.925781 363.238281 L 187.058594 363.238281 C 207.027344 363.238281 220.757812 357.976562 230.710938 349.878906 C 256.710938 347.199219 270.851562 328.9375 276.898438 315.835938 C 293.230469 309.859375 305.503906 298.550781 309.140625 278.3125 C 314.765625 245.117188 294.667969 229.667969 294.667969 229.667969 C 293.019531 241.945312 285.746094 252.867188 277.796875 259.667969 C 275.671875 244.089844 275.234375 221.566406 275.234375 216.832031 C 275.234375 206.746094 281.753906 200.039062 283.605469 198.929688 C 285.320312 197.902344 287.320312 196.855469 289.308594 195.761719 C 301.667969 189.175781 317.039062 180.957031 317.039062 165.785156 C 317.039062 154.671875 310.640625 149.859375 306.449219 146.695312 C 305.894531 146.289062 305.429688 145.9375 304.941406 145.53125 C 303.496094 144.371094 302.390625 143.480469 301.984375 142.523438 C 298.96875 135.800781 299.511719 119.046875 300.824219 116.722656 C 301.230469 116.316406 312.296875 102.386719 308.929688 89.835938 C 307.550781 84.753906 304.1875 80.707031 299.238281 78.164062 C 295.601562 76.3125 291.070312 75.277344 285.851562 75.074219 C 285.78125 73.695312 285.527344 72.402344 285.242188 71.035156 C 284.835938 69.25 284.472656 67.410156 284.609375 65.488281 C 284.878906 62.257812 285.179688 59.292969 286.140625 57.726562 C 291.898438 48.597656 305.890625 45.65625 306.023438 45.65625 L 314.476562 44.019531 L 308.902344 37.496094 C 308.835938 37.363281 297.039062 25.480469 277.136719 25.480469 C 271.714844 25.480469 266.160156 26.390625 260.605469 28.175781 C 244 33.527344 231.15625 49.09375 226.695312 55.136719 C 224.574219 54.449219 222.378906 53.84375 220.121094 53.289062 C 217.238281 42.445312 226.300781 26.855469 226.300781 26.855469 C 226.300781 26.855469 216.984375 24.804688 203.191406 37.285156 C 201.40625 32.824219 197.625 23.242188 201.953125 11.777344 Z M 96.609375 35.964844 C 100.800781 35.964844 104.851562 36.582031 108.757812 37.8125 C 120.96875 41.789062 130.460938 53.726562 134.636719 59.839844 C 133.542969 60.324219 132.445312 60.789062 131.335938 61.34375 C 129.621094 62.167969 127.953125 63.054688 126.449219 63.878906 C 124.667969 60.171875 120.761719 54.484375 112.242188 48.507812 C 106.550781 44.535156 99.765625 42.410156 92.492188 42.410156 C 90.179688 42.476562 87.960938 42.746094 86.3125 43.015625 C 84.054688 41.515625 81.777344 40.265625 79.65625 39.371094 C 82.957031 38.007812 89.050781 35.964844 96.609375 35.964844 Z M 276.949219 35.964844 C 284.496094 35.964844 290.605469 38.019531 293.902344 39.398438 C 291.78125 40.359375 289.507812 41.570312 287.25 43.015625 C 285.601562 42.746094 283.410156 42.460938 280.9375 42.460938 C 273.730469 42.460938 266.875 44.601562 261.238281 48.589844 C 252.800781 54.566406 248.882812 60.183594 247.03125 63.957031 C 245.515625 63.066406 243.957031 62.246094 242.171875 61.421875 C 241.074219 60.867188 240.03125 60.378906 238.921875 59.890625 C 243.113281 53.644531 252.59375 41.722656 264.800781 37.8125 C 268.640625 36.582031 272.773438 35.964844 276.949219 35.964844 Z M 279.222656 50.277344 C 278.667969 50.96875 278.125 51.726562 277.636719 52.46875 C 275.378906 56.039062 274.964844 60.453125 274.625 64.695312 C 274.289062 69.089844 273.875 73.246094 271.617188 76.34375 C 268.734375 76.898438 266.058594 77.527344 263.71875 78.21875 C 262.136719 76.09375 259.878906 73.414062 256.511719 70.535156 C 257.46875 67.234375 260.289062 59.480469 265.78125 55.085938 C 269.621094 52.136719 274.136719 50.480469 279.222656 50.277344 Z M 94.339844 50.359375 C 99.421875 50.558594 103.957031 52.148438 107.726562 55.164062 C 113.21875 59.492188 116.035156 67.246094 116.996094 70.535156 C 113.628906 73.414062 111.300781 76.027344 109.789062 78.21875 C 107.449219 77.597656 104.785156 76.898438 101.890625 76.34375 C 99.632812 73.328125 99.3125 69.171875 98.960938 64.777344 C 98.621094 60.515625 98.179688 56.117188 95.921875 52.550781 C 95.4375 51.792969 94.894531 51.046875 94.339844 50.359375 Z M 186.765625 61.078125 C 205.914062 61.078125 223.078125 64.726562 237.761719 71.933594 C 247.507812 76.664062 251.210938 80.296875 252.574219 82.285156 C 229.238281 92.640625 216.292969 113.984375 216.160156 114.1875 L 213.730469 118.171875 L 217.585938 115.507812 C 217.585938 115.507812 217.714844 115.429688 217.847656 115.292969 C 223.824219 110.628906 244.621094 94.835938 261.84375 89.414062 C 266.644531 87.902344 275.972656 85.296875 284.421875 85.296875 C 288.75 85.296875 292.164062 86.003906 294.777344 87.300781 C 297.183594 88.53125 298.679688 90.296875 299.371094 92.636719 C 301.085938 98.882812 295.183594 108.167969 292.925781 110.910156 C 292.589844 111.316406 292.300781 111.792969 292.027344 112.417969 C 291.828125 109.265625 291.683594 105.90625 291.816406 102.539062 C 289.074219 108.582031 287.371094 124.15625 288.332031 132.039062 C 290.804688 152.144531 299.105469 162.433594 299.105469 162.433594 C 298.550781 161.339844 297.878906 157.148438 297.257812 152.214844 C 297.746094 152.617188 298.277344 153.023438 298.761719 153.429688 L 299.105469 153.71875 C 302.257812 156.261719 305.207031 158.582031 305.207031 166.210938 C 305.207031 175.957031 294.628906 181.636719 284.476562 187.125 C 282.488281 188.152344 280.570312 189.238281 278.71875 190.265625 C 272.742188 193.703125 266.363281 201.738281 265.621094 213.742188 C 265 223.761719 266.253906 248 267.972656 265.847656 C 259.464844 269.144531 249.640625 270.222656 240.71875 270.496094 C 239.339844 267.683594 238.039062 264.679688 236.941406 261.515625 C 236.457031 260.136719 223.492188 226.441406 218.824219 218.8125 C 222.597656 245.570312 230.835938 269.378906 234.960938 280.292969 C 232.554688 279.953125 229.960938 279.816406 226.933594 279.816406 L 146.625 279.816406 C 143.613281 279.816406 140.9375 280.007812 138.597656 280.292969 C 142.722656 269.378906 151.027344 245.570312 154.734375 218.8125 C 150.070312 226.492188 137.105469 260.203125 136.617188 261.515625 C 135.523438 264.667969 134.207031 267.683594 132.839844 270.496094 C 123.917969 270.222656 114.175781 269.132812 105.589844 265.847656 C 107.304688 248 108.546875 223.832031 107.9375 213.742188 C 107.316406 201.792969 100.855469 193.6875 94.894531 190.265625 C 93.042969 189.171875 91.054688 188.152344 89.136719 187.125 C 78.914062 181.636719 68.40625 175.957031 68.40625 166.210938 C 68.40625 158.597656 71.367188 156.191406 74.53125 153.71875 L 74.875 153.429688 C 75.363281 153.023438 75.828125 152.617188 76.382812 152.214844 C 75.757812 157.148438 75.085938 161.339844 74.53125 162.433594 C 74.53125 162.433594 82.832031 152.144531 85.308594 132.039062 C 86.265625 124.140625 84.539062 108.503906 81.796875 102.539062 C 81.929688 105.90625 81.8125 109.253906 81.609375 112.417969 C 81.339844 111.863281 81.050781 111.332031 80.710938 110.910156 C 78.523438 108.167969 72.621094 98.882812 74.269531 92.636719 C 74.890625 90.230469 76.390625 88.53125 78.863281 87.300781 C 81.472656 86.003906 84.902344 85.296875 89.214844 85.296875 C 97.652344 85.296875 106.980469 87.832031 111.792969 89.414062 C 129.019531 94.90625 149.800781 110.628906 155.765625 115.292969 C 155.898438 115.429688 156.054688 115.507812 156.054688 115.507812 L 159.882812 118.171875 L 157.480469 114.1875 C 157.34375 113.984375 144.390625 92.640625 120.984375 82.285156 C 122.363281 80.296875 126.0625 76.734375 135.800781 71.933594 C 150.484375 64.726562 167.6875 61.078125 186.765625 61.078125 Z M 168.015625 128.523438 C 168.042969 128.523438 178.007812 140.589844 186.714844 140.726562 L 186.847656 140.726562 C 195.566406 140.65625 205.515625 128.523438 205.515625 128.523438 C 198.730469 132.648438 192.609375 134.066406 186.765625 134.203125 C 180.9375 134.066406 174.816406 132.636719 168.015625 128.523438 Z M 103.1875 129.398438 C 99.816406 129.472656 96.320312 129.894531 92.703125 130.769531 C 95.632812 131.457031 98.785156 132.441406 101.917969 133.59375 C 99.023438 134.976562 97.4375 138.457031 97.085938 141.808594 C 96.328125 148.675781 100.675781 154.933594 100.675781 154.933594 C 101.164062 149.78125 102.167969 146.121094 103.398438 143.523438 C 103.667969 150.597656 105.59375 159.675781 112.191406 166.949219 C 116.921875 172.167969 136.636719 182.925781 149.875 171.121094 C 150.566406 172.769531 151.328125 174.765625 151.933594 176.957031 C 153.921875 184.027344 150.058594 194.335938 150.058594 194.335938 C 150.058594 194.335938 160.417969 182.578125 159.59375 172.019531 C 167.003906 171.679688 174.292969 166.257812 174.089844 158.628906 C 174.089844 158.628906 161.113281 165.792969 149.714844 152.609375 C 143.894531 145.890625 126.769531 128.855469 103.1875 129.398438 Z M 270.347656 129.527344 C 246.726562 128.988281 229.664062 146.007812 223.84375 152.742188 C 212.378906 165.910156 199.46875 158.789062 199.46875 158.789062 C 199.332031 166.265625 206.609375 171.734375 214.019531 172.019531 C 213.195312 182.660156 223.554688 194.335938 223.554688 194.335938 C 223.554688 194.335938 219.71875 184.027344 221.703125 176.957031 C 222.328125 174.765625 223.089844 172.824219 223.765625 171.121094 C 237.015625 182.992188 256.703125 172.167969 261.371094 166.949219 C 267.953125 159.675781 269.785156 150.597656 270.136719 143.523438 C 271.367188 146.132812 272.476562 149.796875 272.882812 154.933594 C 272.882812 154.933594 277.300781 148.664062 276.476562 141.808594 C 276.070312 138.375 274.480469 134.957031 271.667969 133.726562 L 271.589844 133.726562 C 274.738281 132.496094 277.910156 131.523438 280.859375 130.902344 C 277.230469 130.027344 273.722656 129.605469 270.347656 129.527344 Z M 116.523438 140.59375 C 129.90625 148.136719 142.1875 158.210938 147.339844 165.972656 C 143.433594 168.230469 132.445312 173.113281 121.25 164.808594 C 114.175781 159.589844 114.519531 146.839844 116.523438 140.59375 Z M 257.039062 140.59375 C 259.09375 146.839844 259.398438 159.601562 252.257812 164.890625 C 241.078125 173.191406 230.15625 168.3125 226.246094 165.972656 C 231.382812 158.144531 243.667969 148.136719 257.039062 140.59375 Z M 76.355469 249.023438 C 83.832031 272.632812 108.753906 279.402344 127.429688 280.160156 C 125.574219 283.039062 123.851562 285.375 122.621094 287.027344 L 121.671875 288.003906 C 116.734375 293.355469 115.761719 300.691406 118.84375 309.816406 C 103.269531 309.734375 87.082031 303.082031 78.917969 289.5625 C 70.613281 275.835938 72.921875 252.445312 76.355469 249.023438 Z M 297.285156 249.078125 C 300.703125 252.527344 303.039062 275.90625 294.667969 289.5625 C 286.4375 303.082031 270.234375 309.675781 254.792969 309.949219 C 257.875 300.820312 256.902344 293.394531 251.96875 288.109375 C 251.699219 287.769531 251.355469 287.417969 251.015625 287.078125 C 249.785156 285.429688 248.0625 283.105469 246.210938 280.210938 C 264.871094 279.386719 289.808594 272.683594 297.285156 249.078125 Z M 146.019531 288.609375 L 227.539062 288.609375 C 237.898438 288.609375 242.496094 291.289062 244.414062 293.546875 C 247.296875 296.847656 247.484375 302.1875 245.023438 309.394531 C 240.507812 322.292969 228.355469 353.746094 186.765625 353.8125 C 145.175781 353.746094 133.039062 322.375 128.511719 309.394531 C 125.96875 302.1875 126.183594 296.902344 129.144531 293.546875 C 131.132812 291.289062 135.664062 288.609375 146.019531 288.609375 Z M 208.898438 299.042969 C 206.015625 299.042969 203.945312 299.660156 202.769531 300.890625 C 201.253906 302.472656 201.757812 304.457031 202.164062 305.484375 C 202.851562 307.269531 205.9375 313.238281 211.089844 318.742188 C 212.941406 320.730469 215.601562 321.832031 218.613281 321.832031 C 221.628906 321.832031 224.597656 320.738281 226.722656 318.953125 C 228.304688 317.574219 233.730469 312.625 236.125 306.515625 C 237.015625 304.257812 236.800781 302.398438 235.488281 301.101562 C 234.609375 300.210938 232.75 299.109375 229.046875 299.042969 Z M 144.644531 299.121094 C 140.875 299.121094 139.015625 300.210938 138.125 301.101562 C 136.824219 302.480469 136.625 304.320312 137.515625 306.648438 C 139.921875 312.894531 145.347656 317.980469 146.917969 319.429688 C 149.039062 321.28125 152.050781 322.359375 155 322.359375 C 158.011719 322.359375 160.699219 321.203125 162.550781 319.21875 C 167.703125 313.59375 170.71875 307.46875 171.476562 305.617188 C 171.882812 304.589844 172.355469 302.550781 170.84375 300.96875 C 169.625 299.726562 167.632812 299.121094 164.820312 299.121094 Z M 110.289062 319.429688 C 114.414062 320.1875 118.648438 320.714844 123.042969 321.066406 C 125.449219 326.554688 128.117188 331.976562 131.46875 336.910156 C 121.585938 332.867188 114.75 325.945312 110.289062 319.429688 Z M 263.296875 319.429688 C 258.835938 325.945312 251.976562 332.867188 242.089844 336.910156 C 245.457031 331.976562 248.148438 326.554688 250.542969 321.066406 C 254.9375 320.726562 259.171875 320.1875 263.296875 319.429688 Z M 263.296875 319.429688 " fill-opacity="1" fill-rule="nonzero"/></g></svg>