<svg xmlns="http://www.w3.org/2000/svg" xmlns:xlink="http://www.w3.org/1999/xlink" width="500" zoomAndPan="magnify" viewBox="0 0 375 374.999991" height="500" preserveAspectRatio="xMidYMid meet" version="1.0"><defs><clipPath id="11e42970be"><path d="M 11.558594 68.167969 L 140 68.167969 L 140 262 L 11.558594 262 Z M 11.558594 68.167969 " clip-rule="nonzero"/></clipPath><clipPath id="3368662f13"><path d="M 218 149 L 362 149 L 362 287.917969 L 218 287.917969 Z M 218 149 " clip-rule="nonzero"/></clipPath></defs><g clip-path="url(#11e42970be)"><path fill="#ef4b62" d="M 76.867188 261.589844 C 75.726562 261.589844 74.558594 261.414062 73.421875 261.035156 C 67.667969 259.121094 64.574219 252.917969 66.472656 247.195312 L 74.328125 223.554688 C 60.644531 233.015625 45.050781 239.617188 33.414062 238.257812 C 28.289062 237.6875 11.558594 233.9375 11.558594 209.773438 C 11.558594 149.089844 62.078125 68.625 100.15625 68.625 C 129.226562 68.625 139.78125 90.46875 139.78125 105.15625 C 139.78125 111.203125 134.875 116.109375 128.832031 116.109375 C 122.832031 116.109375 117.953125 111.261719 117.878906 105.273438 C 117.75 100.835938 115.777344 90.527344 100.15625 90.527344 C 80.808594 90.527344 33.457031 154.171875 33.457031 209.773438 C 33.457031 216.210938 35.066406 216.402344 35.839844 216.472656 C 49.8125 218.136719 81.597656 192.542969 83.800781 182.832031 C 87.480469 166.613281 101.132812 141.628906 102.679688 138.839844 C 105.425781 133.875 111.5 131.847656 116.652344 134.109375 C 121.851562 136.375 124.4375 142.214844 122.65625 147.585938 L 87.25 254.101562 C 85.730469 258.699219 81.453125 261.589844 76.867188 261.589844 Z M 76.867188 261.589844 " fill-opacity="1" fill-rule="nonzero"/></g><path fill="#ef4b62" d="M 180.183594 235.265625 C 175.347656 235.265625 171 232.988281 168.238281 229.015625 C 166.457031 226.460938 165.433594 222.839844 165.144531 218.152344 C 155.199219 228.914062 144.25 236.242188 133.648438 235.132812 C 127.050781 234.433594 121.824219 230.929688 118.933594 225.261719 C 109.835938 207.4375 130.394531 168.011719 139.648438 151.878906 C 142.65625 146.652344 149.359375 144.828125 154.585938 147.835938 C 159.828125 150.84375 161.640625 157.542969 158.632812 162.773438 C 147.636719 181.941406 138.863281 203.859375 138.308594 212.75 C 146.949219 208.617188 166.105469 183.578125 181.074219 152.550781 C 183.628906 147.296875 189.847656 144.957031 195.25 147.25 C 200.625 149.542969 203.25 155.675781 201.191406 161.152344 C 194.066406 180.234375 188.402344 200.632812 186.984375 211.347656 C 192.941406 208.457031 199.71875 202.96875 203.632812 198.878906 C 207.808594 194.5 214.742188 194.339844 219.121094 198.542969 C 223.488281 202.734375 223.648438 209.65625 219.457031 214.035156 C 216.085938 217.570312 198.316406 235.175781 180.226562 235.265625 C 180.226562 235.265625 180.210938 235.265625 180.183594 235.265625 Z M 138.527344 215.523438 L 138.671875 215.523438 Z M 138.527344 215.523438 " fill-opacity="1" fill-rule="nonzero"/><path fill="#ef4b62" d="M 221.488281 238.300781 C 220.523438 238.300781 219.53125 238.257812 218.539062 238.183594 C 212.144531 237.675781 206.917969 234.34375 203.804688 228.8125 C 190.097656 204.472656 228.101562 123.027344 245.066406 89.140625 C 247.785156 83.753906 254.367188 81.546875 259.769531 84.25 C 265.171875 86.949219 267.378906 93.535156 264.664062 98.9375 C 238.6875 150.769531 220.113281 202.734375 222.40625 216.34375 C 238.65625 215.21875 256.03125 187.402344 262.136719 173.429688 C 264.574219 167.867188 271.042969 165.355469 276.5625 167.792969 C 282.09375 170.21875 284.636719 176.671875 282.210938 182.21875 C 279.628906 188.105469 256.632812 238.285156 221.488281 238.300781 Z M 222.917969 218.109375 L 223.066406 218.109375 Z M 222.917969 218.109375 " fill-opacity="1" fill-rule="nonzero"/><g clip-path="url(#3368662f13)"><path fill="#ef4b62" d="M 229.167969 287.636719 C 227.824219 287.636719 226.480469 287.390625 225.167969 286.878906 C 219.617188 284.703125 216.828125 278.46875 218.902344 272.875 C 220.902344 267.472656 225.183594 256.421875 231.253906 243.0625 L 266.851562 157.121094 C 269.175781 151.527344 275.597656 148.886719 281.160156 151.195312 C 285.015625 152.785156 287.484375 156.347656 287.863281 160.214844 C 296.550781 153.703125 305.734375 149.734375 315.195312 149.734375 C 326.453125 149.734375 333.753906 153.425781 336.921875 160.726562 C 342.863281 174.421875 329.035156 190.265625 312.085938 208.488281 C 325.183594 200.207031 337.519531 187.300781 342.542969 181.152344 C 346.355469 176.4375 353.289062 175.765625 357.945312 179.578125 C 362.632812 183.402344 363.335938 190.292969 359.507812 194.980469 C 355.480469 199.929688 319.195312 243.148438 284.738281 237.394531 C 279.90625 236.59375 276.109375 233.484375 274.621094 229.074219 C 271.480469 219.875 278.78125 212.0625 293.308594 196.5 C 299.078125 190.324219 309.824219 178.816406 314.347656 171.664062 C 294.59375 172.832031 268.472656 214.371094 250.46875 253.867188 L 239.285156 280.863281 C 237.546875 285.082031 233.460938 287.636719 229.167969 287.636719 Z M 229.167969 287.636719 " fill-opacity="1" fill-rule="nonzero"/></g></svg>