<svg xmlns="http://www.w3.org/2000/svg" xmlns:xlink="http://www.w3.org/1999/xlink" width="500" zoomAndPan="magnify" viewBox="0 0 375 374.999991" height="500" preserveAspectRatio="xMidYMid meet" version="1.0"><defs><clipPath id="d333ec83d1"><path d="M 24.089844 4.148438 L 351.089844 4.148438 L 351.089844 370.898438 L 24.089844 370.898438 Z M 24.089844 4.148438 " clip-rule="nonzero"/></clipPath></defs><g clip-path="url(#d333ec83d1)"><path fill="#ef4b62" d="M 349.101562 7.191406 C 347.59375 5.542969 345.46875 4.605469 343.234375 4.605469 L 32.546875 4.605469 C 30.3125 4.605469 28.191406 5.542969 26.679688 7.191406 C 25.167969 8.835938 24.429688 11.046875 24.628906 13.265625 L 52.617188 326.773438 C 52.914062 330.050781 55.195312 332.808594 58.359375 333.71875 L 185.671875 370.078125 C 186.382812 370.277344 187.113281 370.382812 187.851562 370.382812 C 188.589844 370.382812 189.324219 370.277344 190.03125 370.078125 L 317.449219 333.71875 C 320.613281 332.808594 322.894531 330.050781 323.1875 326.773438 L 351.164062 13.265625 C 351.355469 11.039062 350.605469 8.835938 349.101562 7.191406 Z M 282.09375 115.285156 L 132.515625 115.285156 L 136.070312 155.757812 L 278.492188 155.757812 L 267.8125 275.351562 L 187.84375 299.53125 L 187.058594 299.292969 L 108 275.34375 L 103.691406 226.601562 L 142.410156 226.601562 L 144.109375 245.523438 L 188.289062 254.78125 L 231.679688 245.507812 L 236.300781 194.339844 L 100.78125 194.339844 L 90.277344 76.601562 L 285.5625 76.601562 Z M 282.09375 115.285156 " fill-opacity="1" fill-rule="nonzero"/></g></svg>