<svg xmlns="http://www.w3.org/2000/svg" xmlns:xlink="http://www.w3.org/1999/xlink" width="500" zoomAndPan="magnify" viewBox="0 0 375 374.999991" height="500" preserveAspectRatio="xMidYMid meet" version="1.0"><defs><clipPath id="065ddd8bf3"><path d="M 27 21.773438 L 364 21.773438 L 364 365.273438 L 27 365.273438 Z M 27 21.773438 " clip-rule="nonzero"/></clipPath></defs><path fill="#ef4b62" d="M 255.34375 184.628906 C 255.34375 184.601562 255.34375 184.558594 255.34375 184.5 C 255.34375 164.488281 269.15625 147.65625 287.835938 142.933594 L 288.136719 142.859375 L 288.136719 142.832031 C 288.980469 142.660156 289.683594 142.488281 290.558594 142.34375 L 291.058594 142.34375 C 291.773438 142.144531 292.445312 142.144531 293.148438 141.972656 L 293.835938 141.972656 C 294.535156 141.972656 295.050781 141.800781 295.722656 141.800781 L 302.453125 141.800781 C 303.140625 141.800781 303.667969 141.972656 304.183594 141.972656 C 304.527344 141.972656 304.683594 141.972656 305.058594 142.144531 C 305.730469 142.316406 306.246094 142.316406 306.945312 142.488281 C 307.117188 142.488281 307.289062 142.488281 307.648438 142.660156 L 310.054688 143.144531 L 310.226562 143.144531 C 310.925781 143.347656 311.613281 143.519531 312.285156 143.863281 C 312.457031 143.863281 312.628906 144.035156 312.972656 144.035156 C 313.503906 144.207031 314.191406 144.378906 314.71875 144.691406 C 314.890625 144.691406 315.0625 144.863281 315.21875 144.863281 C 315.921875 145.207031 316.609375 145.378906 317.308594 145.722656 L 317.480469 145.722656 C 318.328125 146.039062 319.070312 146.46875 319.742188 146.953125 L 319.714844 146.925781 L 319.886719 146.925781 C 320.589844 147.269531 321.277344 147.769531 321.976562 148.113281 C 322.148438 148.113281 322.148438 148.285156 322.292969 148.285156 C 322.992188 148.628906 323.539062 149.144531 324.210938 149.488281 L 324.382812 149.660156 C 326.441406 151.191406 328.359375 152.910156 330.25 154.613281 L 330.421875 154.785156 C 337.792969 162.5 342.347656 172.921875 342.347656 184.429688 C 342.347656 184.488281 342.347656 184.53125 342.347656 184.601562 C 341.53125 207.820312 322.378906 226.328125 298.84375 226.328125 C 275.3125 226.328125 256.160156 207.820312 255.34375 184.671875 Z M 255.34375 184.628906 " fill-opacity="1" fill-rule="nonzero"/><path fill="#ef4b62" d="M 182.410156 135.816406 L 182.753906 135.730469 L 182.753906 135.703125 C 183.742188 135.503906 184.542969 135.300781 185.546875 135.128906 L 186.117188 135.128906 C 186.949219 134.902344 187.734375 134.902344 188.539062 134.699219 L 189.339844 134.699219 C 190.140625 134.699219 190.757812 134.5 191.527344 134.5 L 199.316406 134.5 C 200.117188 134.5 200.71875 134.699219 201.320312 134.699219 C 201.722656 134.699219 201.894531 134.699219 202.324219 134.902344 C 203.09375 135.101562 203.695312 135.101562 204.5 135.300781 C 204.699219 135.300781 204.898438 135.300781 205.300781 135.503906 L 208.078125 136.074219 L 208.277344 136.074219 C 209.007812 136.277344 209.738281 136.488281 210.453125 136.832031 L 246.367188 68.238281 L 282.109375 137.207031 C 283.441406 136.746094 284.730469 136.175781 286.105469 135.832031 L 286.449219 135.746094 L 286.449219 135.703125 C 287.4375 135.503906 288.222656 135.300781 289.238281 135.128906 L 289.8125 135.128906 C 290.640625 134.902344 291.429688 134.902344 292.230469 134.699219 L 293.03125 134.699219 C 293.835938 134.699219 294.449219 134.5 295.222656 134.5 L 303.011719 134.5 C 303.8125 134.5 304.414062 134.699219 305.027344 134.699219 C 305.429688 134.699219 305.601562 134.699219 306.03125 134.902344 C 306.804688 135.101562 307.40625 135.101562 308.207031 135.300781 C 308.40625 135.300781 308.605469 135.300781 309.007812 135.503906 L 311.785156 136.074219 L 311.871094 136.074219 L 353.152344 32.511719 L 139.480469 32.511719 L 180.820312 136.363281 C 181.351562 136.203125 181.851562 135.945312 182.410156 135.816406 Z M 182.410156 135.816406 " fill-opacity="1" fill-rule="nonzero"/><path fill="#ef4b62" d="M 298.84375 232.28125 C 271.632812 232.28125 249.488281 210.882812 248.542969 184.113281 L 248.542969 184.070312 L 245.367188 184.617188 C 244.105469 211.183594 222.148438 232.28125 195.136719 232.28125 C 184.558594 232.28125 174.796875 228.976562 166.695312 223.449219 C 162.628906 228.71875 158.363281 233.585938 153.695312 237.949219 L 153.640625 238.007812 C 143.289062 247.800781 131.078125 255.757812 117.625 261.296875 L 116.851562 261.585938 C 104.8125 253.523438 99.601562 239.3125 104.3125 226.570312 L 59.277344 215.335938 C 58.589844 216.722656 57.875 218.125 57.175781 219.613281 C 50.433594 233.339844 42.816406 248.859375 39.894531 266.265625 C 34.085938 301.078125 43.605469 325.441406 66.578125 341.257812 C 78.375 349.589844 93.058594 354.585938 108.933594 354.585938 C 108.976562 354.585938 109.019531 354.585938 109.0625 354.585938 C 135.429688 354.585938 162.199219 341.457031 188.078125 328.71875 C 206.53125 319.671875 225.582031 313.804688 244.335938 309.222656 C 251.261719 307.535156 258.476562 306.546875 266.09375 305.445312 C 281.539062 303.253906 297.484375 300.976562 311.8125 292.703125 C 328.101562 283.328125 339.742188 267.511719 343.25 248.859375 L 343.304688 248.457031 C 345.496094 236.03125 343.675781 223.621094 338.953125 212.300781 C 329.765625 224.394531 315.277344 232.28125 298.84375 232.28125 Z M 298.84375 232.28125 " fill-opacity="1" fill-rule="nonzero"/><path fill="#ef4b62" d="M 90.914062 152.808594 C 110.652344 152.808594 126.699219 168.871094 126.699219 188.59375 C 126.699219 208.320312 110.652344 224.382812 90.925781 224.382812 C 71.203125 224.382812 55.125 208.335938 55.125 188.609375 C 55.125 168.898438 71.1875 152.808594 90.914062 152.808594 Z M 90.914062 152.808594 " fill-opacity="1" fill-rule="nonzero"/><path fill="#ef4b62" d="M 151.636719 183.941406 C 151.636719 183.914062 151.636719 183.871094 151.636719 183.8125 C 151.636719 163.800781 165.449219 146.96875 184.128906 142.246094 L 184.429688 142.171875 L 184.429688 142.144531 C 185.273438 141.972656 185.976562 141.800781 186.847656 141.65625 L 187.347656 141.65625 C 188.066406 141.457031 188.738281 141.457031 189.4375 141.285156 L 190.125 141.285156 C 190.828125 141.285156 191.34375 141.113281 192.015625 141.113281 L 198.742188 141.113281 C 199.429688 141.113281 199.960938 141.285156 200.476562 141.285156 C 200.820312 141.285156 200.976562 141.285156 201.347656 141.457031 C 202.023438 141.628906 202.535156 141.628906 203.238281 141.800781 C 203.410156 141.800781 203.582031 141.800781 203.941406 141.972656 L 206.34375 142.460938 L 206.515625 142.460938 C 207.21875 142.660156 207.90625 142.832031 208.578125 143.175781 C 208.75 143.175781 208.921875 143.347656 209.265625 143.347656 C 209.792969 143.519531 210.480469 143.691406 211.011719 144.003906 C 211.183594 144.003906 211.355469 144.175781 211.511719 144.175781 C 212.214844 144.519531 212.902344 144.691406 213.601562 145.035156 L 213.773438 145.035156 C 214.617188 145.351562 215.363281 145.78125 216.035156 146.265625 L 216.007812 146.238281 L 216.179688 146.238281 C 216.878906 146.582031 217.566406 147.082031 218.269531 147.425781 C 218.441406 147.425781 218.441406 147.597656 218.582031 147.597656 C 219.285156 147.941406 219.828125 148.457031 220.5 148.800781 L 220.671875 148.972656 C 222.734375 150.503906 224.652344 152.222656 226.542969 153.925781 L 226.714844 154.097656 C 234.085938 161.839844 238.636719 172.261719 238.636719 183.769531 C 238.636719 183.828125 238.636719 183.871094 238.636719 183.941406 C 237.820312 207.160156 218.667969 225.667969 195.136719 225.667969 C 171.605469 225.667969 152.449219 207.160156 151.636719 184.015625 Z M 151.636719 183.941406 " fill-opacity="1" fill-rule="nonzero"/><g clip-path="url(#065ddd8bf3)"><path fill="#262626" d="M 109.0625 365.320312 C 91.34375 365.320312 74.550781 360.023438 60.394531 350.019531 C 33.425781 331.46875 22.933594 302.652344 29.316406 264.488281 C 32.480469 245.652344 40.398438 229.433594 47.398438 215.148438 L 49.359375 211.140625 C 51.992188 205.84375 58.589844 203.382812 63.902344 206.015625 C 69.210938 208.664062 71.515625 214.804688 68.882812 220.101562 L 68.582031 220.703125 L 66.863281 224.195312 C 60.335938 237.550781 53.152344 252.25 50.503906 268.027344 C 45.480469 298.070312 52.535156 318.527344 72.691406 332.398438 C 83.296875 339.925781 95.792969 343.847656 108.933594 343.847656 C 133.054688 343.847656 158.605469 331.265625 183.328125 319.085938 C 200.03125 310.898438 218.613281 304.457031 241.773438 298.800781 C 248.671875 297.113281 255.542969 296.125 262.828125 295.066406 L 264.546875 294.824219 C 278.976562 292.773438 293.863281 290.671875 306.445312 283.414062 C 320.246094 275.46875 329.808594 262.15625 332.683594 246.882812 C 334.757812 235.03125 332.898438 223.164062 327.316406 212.269531 C 325.597656 208.90625 325.769531 204.898438 327.773438 201.691406 C 331.152344 196.308594 332.855469 190.285156 332.855469 183.800781 C 332.855469 183.585938 332.855469 183.371094 332.871094 183.15625 C 332.539062 168.167969 322.21875 155.085938 307.578125 151.175781 C 304.597656 150.390625 301.964844 148.328125 300.589844 145.59375 C 299.21875 142.847656 298.917969 139.609375 300.046875 136.761719 L 337.320312 43.246094 L 155.3125 43.246094 L 192.6875 137.164062 C 193.804688 139.96875 193.691406 143.117188 192.375 145.824219 C 191.058594 148.527344 188.652344 150.574219 185.761719 151.433594 C 171.015625 155.800781 161.082031 168.871094 161.066406 183.929688 C 161.066406 194.722656 166.464844 205.027344 175.511719 211.46875 C 177.84375 213.128906 179.40625 215.648438 179.878906 218.453125 C 180.351562 221.273438 179.675781 224.152344 178.003906 226.484375 C 172.890625 233.597656 167.324219 239.925781 161.023438 245.808594 C 149.558594 256.675781 136.320312 265.21875 121.703125 271.230469 C 118.398438 272.605469 113.84375 272.492188 110.867188 270.503906 C 94.71875 259.679688 87.878906 240.082031 94.234375 222.847656 C 96.296875 217.28125 102.523438 214.445312 108.019531 216.492188 C 113.585938 218.554688 116.421875 224.722656 114.375 230.277344 C 112 236.707031 113.714844 243.761719 118.613281 249.074219 C 128.933594 244.191406 138.121094 237.894531 146.253906 230.191406 C 149.230469 227.402344 151.992188 224.539062 154.582031 221.519531 C 145.050781 211.339844 139.597656 197.886719 139.597656 183.886719 C 139.625 163.171875 151.003906 144.808594 168.828125 135.257812 L 129.503906 36.476562 C 128.1875 33.167969 128.589844 29.433594 130.59375 26.484375 C 132.597656 23.535156 135.917969 21.773438 139.480469 21.773438 L 353.152344 21.773438 C 356.71875 21.773438 360.039062 23.535156 362.042969 26.484375 C 364.046875 29.433594 364.449219 33.167969 363.132812 36.488281 L 323.996094 134.699219 C 342.476562 144.175781 354.328125 162.929688 354.371094 183.800781 C 354.371094 184.101562 354.355469 184.402344 354.34375 184.6875 C 354.214844 192.746094 352.367188 200.605469 348.929688 207.777344 C 354.699219 221.402344 356.417969 235.988281 353.898438 250.332031 C 349.777344 272.292969 336.433594 290.941406 317.195312 302.023438 C 301.019531 311.355469 283.285156 313.859375 267.625 316.078125 L 265.9375 316.324219 C 259.179688 317.296875 252.808594 318.210938 246.898438 319.65625 C 225.269531 324.941406 208.089844 330.878906 192.832031 338.367188 C 165.890625 351.609375 138.066406 365.320312 109.0625 365.320312 Z M 109.0625 365.320312 " fill-opacity="1" fill-rule="nonzero"/></g><path fill="#262626" d="M 284.488281 152.464844 C 280.609375 152.464844 276.859375 150.359375 274.941406 146.667969 L 246.324219 91.472656 L 217.667969 146.210938 C 214.917969 151.476562 208.433594 153.511719 203.179688 150.746094 C 197.929688 148 195.894531 141.5 198.644531 136.261719 L 236.863281 63.257812 C 238.710938 59.707031 242.386719 57.503906 246.382812 57.503906 C 246.382812 57.503906 246.398438 57.503906 246.398438 57.503906 C 250.40625 57.503906 254.070312 59.75 255.914062 63.300781 L 294.007812 136.804688 C 296.726562 142.074219 294.679688 148.542969 289.410156 151.277344 C 287.835938 152.078125 286.148438 152.464844 284.488281 152.464844 Z M 284.488281 152.464844 " fill-opacity="1" fill-rule="nonzero"/><path fill="#262626" d="M 254.785156 185.890625 L 239.140625 185.890625 C 233.214844 185.890625 228.402344 181.078125 228.402344 175.152344 C 228.402344 169.226562 233.214844 164.417969 239.140625 164.417969 L 254.785156 164.417969 C 260.710938 164.417969 265.519531 169.226562 265.519531 175.152344 C 265.519531 181.078125 260.710938 185.890625 254.785156 185.890625 Z M 254.785156 185.890625 " fill-opacity="1" fill-rule="nonzero"/><path fill="#262626" d="M 195.136719 236.40625 C 165.761719 236.40625 141.929688 213.558594 140.898438 184.402344 C 140.898438 184.273438 140.898438 184.070312 140.898438 183.941406 L 140.898438 183.828125 C 140.898438 159.277344 157.589844 137.90625 181.480469 131.839844 C 183.285156 131.410156 184.101562 131.238281 185.058594 131.066406 C 185.417969 131.007812 185.789062 130.964844 186.160156 130.9375 C 186.449219 130.894531 186.734375 130.851562 187.007812 130.808594 C 187.863281 130.59375 188.539062 130.535156 189.410156 130.535156 C 190.3125 130.449219 191.113281 130.363281 191.988281 130.363281 L 198.730469 130.363281 C 199.289062 130.363281 200.820312 130.507812 201.378906 130.59375 C 202.378906 130.59375 203.367188 130.792969 204.3125 131.09375 C 204.339844 131.09375 204.382812 131.109375 204.425781 131.109375 C 205.269531 131.179688 206.085938 131.351562 206.890625 131.609375 L 207.933594 131.824219 C 208.449219 131.894531 208.964844 131.996094 209.421875 132.125 C 210.351562 132.382812 211.210938 132.652344 212.027344 132.96875 C 212.242188 133.027344 212.441406 133.082031 212.644531 133.15625 C 213.289062 133.355469 214.21875 133.640625 215.261719 134.128906 C 215.578125 134.242188 215.890625 134.386719 216.207031 134.542969 L 216.59375 134.714844 C 216.953125 134.800781 217.308594 134.929688 217.652344 135.042969 C 218.710938 135.460938 219.742188 135.945312 220.703125 136.53125 C 220.800781 136.574219 220.917969 136.632812 221.003906 136.691406 C 221.246094 136.804688 222.519531 137.535156 222.75 137.679688 L 222.75 137.707031 C 223.007812 137.820312 223.265625 137.949219 223.507812 138.078125 C 224.308594 138.496094 225.023438 138.964844 225.742188 139.453125 C 226.742188 139.96875 227.285156 140.441406 228.089844 141.242188 C 229.375 142.085938 231.550781 144.019531 233.671875 145.9375 C 244.078125 156.773438 249.375 169.929688 249.375 183.785156 C 248.34375 213.53125 224.523438 236.40625 195.136719 236.40625 Z M 190.414062 152.019531 C 190.226562 152.050781 190.039062 152.0625 189.855469 152.09375 C 188.9375 152.351562 188.28125 152.394531 187.320312 152.394531 C 172.390625 156.285156 162.355469 169.113281 162.355469 183.828125 L 162.355469 184.027344 C 162.972656 201.191406 177.359375 214.949219 195.121094 214.949219 C 212.886719 214.949219 227.273438 201.175781 227.902344 183.585938 C 227.902344 175.496094 224.710938 167.59375 218.957031 161.554688 C 217.695312 160.4375 216.0625 158.949219 214.289062 157.648438 C 214.203125 157.589844 214.117188 157.519531 214.046875 157.460938 C 213.773438 157.289062 213.53125 157.144531 213.402344 157.046875 C 212.945312 156.800781 212.472656 156.542969 212 156.257812 C 211.296875 155.972656 210.609375 155.613281 209.953125 155.15625 C 209.578125 155.027344 209.222656 154.871094 208.863281 154.699219 C 208.390625 154.527344 207.949219 154.367188 207.503906 154.167969 C 207.117188 154.039062 206.730469 153.882812 206.359375 153.695312 C 206.203125 153.667969 206.058594 153.625 205.902344 153.582031 C 205.3125 153.4375 204.753906 153.238281 204.199219 152.996094 L 201.792969 152.507812 C 201.507812 152.449219 201.21875 152.378906 200.949219 152.308594 C 200.847656 152.292969 200.734375 152.265625 200.632812 152.234375 C 200.316406 152.191406 199.402344 152.035156 198.914062 151.933594 C 198.585938 151.90625 198.269531 151.863281 198.070312 151.835938 L 192 151.863281 C 191.84375 151.921875 191.199219 152.007812 190.414062 152.019531 Z M 199.933594 151.992188 C 199.988281 151.992188 200.046875 152.007812 200.105469 152.007812 C 200.046875 152.007812 199.988281 152.007812 199.933594 151.992188 Z M 199.933594 151.992188 " fill-opacity="1" fill-rule="nonzero"/><path fill="#262626" d="M 298.84375 236.40625 C 269.472656 236.40625 245.636719 213.558594 244.605469 184.402344 C 244.605469 184.273438 244.605469 184.070312 244.605469 183.941406 L 244.605469 183.828125 C 244.605469 159.277344 261.296875 137.90625 285.1875 131.839844 C 287.019531 131.410156 287.824219 131.238281 288.765625 131.066406 C 289.125 131.007812 289.496094 130.964844 289.871094 130.9375 C 290.15625 130.894531 290.441406 130.851562 290.714844 130.808594 C 291.574219 130.59375 292.246094 130.535156 293.117188 130.535156 C 294.035156 130.449219 294.824219 130.363281 295.710938 130.363281 L 302.4375 130.363281 C 302.996094 130.363281 304.527344 130.507812 305.070312 130.59375 C 306.074219 130.59375 307.0625 130.777344 308.019531 131.09375 C 308.0625 131.09375 308.105469 131.109375 308.164062 131.109375 C 308.992188 131.195312 309.796875 131.367188 310.597656 131.609375 L 311.65625 131.824219 C 312.171875 131.894531 312.6875 131.996094 313.144531 132.125 C 314.074219 132.382812 314.933594 132.652344 315.75 132.96875 C 315.964844 133.027344 316.164062 133.082031 316.378906 133.15625 C 317.023438 133.355469 317.953125 133.640625 318.984375 134.113281 C 319.3125 134.242188 319.628906 134.386719 319.945312 134.527344 C 319.945312 134.527344 320.101562 134.585938 320.316406 134.6875 C 320.6875 134.785156 321.0625 134.902344 321.402344 135.03125 C 322.464844 135.445312 323.480469 135.933594 324.4375 136.519531 C 324.523438 136.589844 324.597656 136.617188 324.683594 136.660156 C 324.941406 136.789062 326.226562 137.519531 326.472656 137.664062 L 326.457031 137.691406 C 326.714844 137.808594 326.972656 137.9375 327.230469 138.066406 C 328.019531 138.464844 328.734375 138.9375 329.433594 139.425781 C 330.4375 139.941406 331.007812 140.425781 331.8125 141.214844 C 333.054688 142.03125 335.1875 143.933594 337.292969 145.808594 C 347.800781 156.730469 353.097656 169.898438 353.097656 183.742188 C 352.039062 213.53125 328.21875 236.40625 298.84375 236.40625 Z M 294.121094 152.019531 C 293.933594 152.050781 293.761719 152.0625 293.5625 152.09375 C 292.660156 152.335938 291.972656 152.394531 291.027344 152.394531 C 276.097656 156.285156 266.066406 169.113281 266.066406 183.828125 L 266.066406 184.027344 C 266.679688 201.191406 281.066406 214.949219 298.832031 214.949219 C 316.582031 214.949219 330.980469 201.164062 331.609375 183.570312 C 331.609375 175.484375 328.417969 167.59375 322.648438 161.554688 C 321.320312 160.382812 319.730469 158.921875 317.996094 157.648438 C 317.910156 157.589844 317.839844 157.53125 317.753906 157.460938 C 317.480469 157.289062 317.253906 157.132812 317.109375 157.046875 C 316.636719 156.800781 316.164062 156.542969 315.691406 156.257812 C 314.992188 155.972656 314.304688 155.613281 313.660156 155.15625 C 313.273438 155.027344 312.886719 154.855469 312.53125 154.683594 C 312.371094 154.625 311.941406 154.453125 311.542969 154.28125 C 311.46875 154.269531 311.414062 154.238281 311.339844 154.226562 C 310.910156 154.082031 310.480469 153.910156 310.082031 153.710938 C 309.925781 153.683594 309.765625 153.640625 309.609375 153.597656 C 309.035156 153.453125 308.464844 153.253906 307.921875 153.007812 L 305.515625 152.523438 C 305.230469 152.464844 304.957031 152.40625 304.683594 152.320312 C 304.570312 152.292969 304.457031 152.265625 304.339844 152.234375 C 304.027344 152.191406 303.097656 152.035156 302.625 151.933594 C 302.292969 151.90625 301.992188 151.878906 301.792969 151.847656 L 295.722656 151.878906 C 295.550781 151.921875 294.910156 152.007812 294.121094 152.019531 Z M 303.640625 151.992188 C 303.699219 151.992188 303.753906 152.007812 303.8125 152.007812 C 303.753906 152.007812 303.699219 152.007812 303.640625 151.992188 Z M 303.640625 151.992188 " fill-opacity="1" fill-rule="nonzero"/><path fill="#262626" d="M 90.925781 235.117188 C 65.261719 235.117188 44.390625 214.246094 44.390625 188.609375 C 44.390625 162.941406 65.261719 142.074219 90.914062 142.074219 C 116.566406 142.074219 137.433594 162.941406 137.433594 188.59375 C 137.433594 214.246094 116.566406 235.117188 90.925781 235.117188 Z M 90.914062 163.542969 C 77.097656 163.542969 65.863281 174.796875 65.863281 188.609375 C 65.863281 202.410156 77.113281 213.644531 90.925781 213.644531 C 104.726562 213.644531 115.964844 202.410156 115.964844 188.59375 C 115.964844 174.78125 104.726562 163.542969 90.914062 163.542969 Z M 90.914062 163.542969 " fill-opacity="1" fill-rule="nonzero"/></svg>