<svg xmlns="http://www.w3.org/2000/svg" xmlns:xlink="http://www.w3.org/1999/xlink" width="500" zoomAndPan="magnify" viewBox="0 0 375 374.999991" height="500" preserveAspectRatio="xMidYMid meet" version="1.0"><defs><clipPath id="a803c44331"><path d="M 9 276 L 247 276 L 247 361.695312 L 9 361.695312 Z M 9 276 " clip-rule="nonzero"/></clipPath><clipPath id="e321b48f7a"><path d="M 8.71875 284 L 276 284 L 276 361.695312 L 8.71875 361.695312 Z M 8.71875 284 " clip-rule="nonzero"/></clipPath></defs><path fill="#ef4b62" d="M 86.9375 66.6875 C 66.511719 96.585938 69.054688 135.480469 84.617188 167.214844 L 85.761719 169.476562 L 86.535156 170.90625 C 86.675781 171.183594 86.84375 171.460938 86.992188 171.730469 C 87.261719 172.234375 87.53125 172.714844 87.765625 173.210938 L 89.253906 175.8125 L 90.101562 177.242188 L 91.832031 179.996094 L 92.605469 181.15625 C 93.378906 182.394531 94.25 183.625 95.109375 184.835938 C 95.128906 184.867188 95.15625 184.902344 95.179688 184.933594 C 95.316406 185.128906 95.464844 185.320312 95.566406 185.515625 C 96.308594 186.558594 97.113281 187.585938 97.886719 188.605469 L 98.746094 189.722656 L 100.851562 192.359375 L 101.65625 193.339844 C 102.613281 194.496094 103.59375 195.636719 104.59375 196.757812 L 104.65625 196.820312 C 104.695312 196.871094 104.734375 196.898438 104.773438 196.945312 C 105.742188 198.039062 106.738281 199.109375 107.757812 200.15625 L 108.714844 201.136719 L 111.101562 203.519531 L 112.078125 204.464844 C 113.148438 205.492188 114.238281 206.5 115.34375 207.492188 L 115.960938 208.03125 L 118.925781 210.585938 L 120.15625 211.582031 L 122.632812 213.515625 L 123.953125 214.539062 L 127.734375 217.304688 C 127.832031 217.371094 127.917969 217.441406 128.015625 217.503906 C 128.902344 218.125 129.804688 218.722656 130.707031 219.324219 L 131.875 220.113281 L 136.097656 222.746094 L 137.265625 223.414062 L 140.4375 225.222656 C 141.015625 225.539062 141.609375 225.839844 142.1875 226.144531 L 144.453125 227.304688 L 144.976562 227.558594 L 145.902344 228.015625 L 149.5 229.707031 L 150.261719 230.09375 C 151.648438 230.710938 153.046875 231.300781 154.453125 231.871094 L 155.472656 232.277344 L 159.429688 233.769531 L 159.921875 233.949219 C 161.382812 234.464844 162.855469 234.953125 164.332031 235.417969 L 165.394531 235.742188 C 166.941406 236.207031 168.390625 236.761719 169.945312 237.058594 C 268.726562 255.445312 297.425781 176.640625 297.425781 176.640625 C 273.328125 208.617188 230.550781 217.046875 190.023438 207.660156 C 188.488281 207.273438 187 206.820312 185.5 206.371094 L 184.371094 205.984375 C 182.910156 205.527344 181.457031 205.042969 180.019531 204.539062 L 179.417969 204.320312 C 178.132812 203.855469 176.851562 203.375 175.578125 202.871094 L 174.496094 202.4375 C 173.105469 201.878906 171.722656 201.292969 170.351562 200.683594 L 169.523438 200.3125 L 166.027344 198.648438 L 165.023438 198.152344 C 164.117188 197.699219 163.214844 197.230469 162.316406 196.75 L 160.511719 195.785156 C 159.421875 195.183594 158.339844 194.566406 157.269531 193.929688 L 156.175781 193.3125 C 154.753906 192.460938 153.347656 191.574219 151.953125 190.683594 C 151.570312 190.433594 151.195312 190.164062 150.8125 189.910156 L 147.808594 187.875 L 146.84375 187.179688 L 144 185.09375 L 142.742188 184.125 L 140.179688 182.085938 L 139.035156 181.15625 L 135.84375 178.449219 C 135.734375 178.351562 135.613281 178.257812 135.457031 178.152344 C 134.320312 177.136719 133.203125 176.089844 132.101562 175.042969 L 131.15625 174.117188 L 128.746094 171.710938 L 127.800781 170.746094 C 126.796875 169.699219 125.808594 168.636719 124.84375 167.558594 C 124.796875 167.503906 124.742188 167.453125 124.695312 167.402344 C 123.675781 166.261719 122.675781 165.101562 121.695312 163.921875 L 120.910156 162.972656 L 118.746094 160.253906 L 117.953125 159.25 L 115.460938 155.867188 C 92.957031 124.605469 84.914062 81.496094 102.855469 46.085938 M 150.347656 41.492188 C 135.578125 63.144531 136.378906 92.121094 147.898438 115.015625 C 149.828125 118.867188 152.007812 122.570312 154.433594 126.125 C 156.644531 129.355469 159.101562 133.199219 162.039062 135.792969 C 163.101562 136.953125 164.214844 138.109375 165.351562 139.292969 C 165.636719 139.59375 165.933594 139.875 166.226562 140.171875 C 167.328125 141.265625 168.457031 142.335938 169.613281 143.378906 C 169.660156 143.417969 169.703125 143.460938 169.753906 143.5 C 171.050781 144.65625 172.382812 145.777344 173.738281 146.863281 L 174.636719 147.578125 C 175.988281 148.640625 177.367188 149.664062 178.773438 150.652344 C 178.808594 150.683594 178.847656 150.714844 178.890625 150.742188 C 179.507812 151.179688 180.144531 151.59375 180.777344 152.011719 C 181.078125 152.210938 181.363281 152.425781 181.664062 152.613281 C 182.671875 153.273438 183.695312 153.914062 184.730469 154.527344 L 185.164062 154.785156 L 187.871094 156.328125 C 188.1875 156.511719 188.511719 156.671875 188.835938 156.839844 L 190.769531 157.839844 C 190.867188 157.886719 190.964844 157.925781 191.054688 157.972656 C 192.359375 158.628906 193.671875 159.25 195.011719 159.847656 C 195.296875 159.976562 195.59375 160.09375 195.886719 160.214844 C 196.957031 160.679688 198.039062 161.128906 199.132812 161.558594 L 200.527344 162.074219 C 201.511719 162.441406 202.503906 162.792969 203.503906 163.132812 L 204.847656 163.566406 C 206.265625 164.019531 207.671875 164.585938 209.152344 164.835938 C 285.417969 177.703125 303.027344 117.898438 303.027344 117.898438 C 287.15625 141.171875 256.421875 152.285156 223.621094 143.617188 C 222.167969 143.230469 220.730469 142.804688 219.300781 142.339844 C 218.863281 142.207031 218.433594 142.0625 218 141.953125 C 216.988281 141.621094 215.980469 141.265625 214.980469 140.894531 L 213.617188 140.378906 C 212.523438 139.992188 211.441406 139.507812 210.371094 139.042969 C 210.074219 138.914062 209.78125 138.800781 209.492188 138.664062 C 208.144531 138.074219 206.820312 137.449219 205.507812 136.78125 C 204.835938 136.445312 204.175781 136.09375 203.515625 135.746094 L 202.363281 135.140625 C 201.511719 134.675781 200.667969 134.191406 199.835938 133.691406 L 199.234375 133.304688 C 198.203125 132.691406 197.1875 132.054688 196.179688 131.402344 C 195.871094 131.203125 195.570312 131.015625 195.257812 130.777344 L 193.28125 129.441406 C 191.882812 128.453125 190.507812 127.429688 189.15625 126.371094 L 188.230469 125.628906 C 173.875 114.085938 162.492188 98.308594 157.082031 80.417969 C 151.410156 61.859375 152.636719 41.039062 162.496094 24.140625 M 203.664062 22.671875 C 194.957031 35.722656 194.101562 51.933594 200.183594 66.347656 C 206.558594 81.644531 219.613281 93.652344 234.851562 99.339844 C 235.476562 99.578125 236.109375 99.789062 236.785156 100.007812 L 237.621094 100.277344 C 238.515625 100.5625 239.410156 100.898438 240.335938 101.074219 C 282.449219 109.359375 293.871094 79.066406 296.910156 74.609375 C 286.902344 89.28125 270.085938 92.804688 249.457031 87.703125 C 247.832031 87.296875 246.035156 86.699219 244.429688 86.132812 C 242.410156 85.402344 240.433594 84.566406 238.5 83.625 C 234.820312 81.820312 231.355469 79.667969 228.109375 77.164062 C 209.609375 62.898438 198.136719 35.683594 210.183594 13.523438 " fill-opacity="1" fill-rule="nonzero"/><path fill="#ef4b62" d="M 110.660156 299.757812 L 107.808594 309.871094 L 110.660156 299.761719 Z M 125.339844 321.710938 L 122.195312 321.691406 Z M 124.566406 336.8125 L 105.726562 336.882812 Z M 128.507812 321.734375 L 125.363281 321.714844 Z M 126.257812 335.527344 L 129.546875 323.011719 Z M 195.585938 277.890625 L 189.476562 306.632812 Z M 179.867188 277.890625 L 175.226562 299.363281 Z M 179.867188 277.890625 " fill-opacity="1" fill-rule="nonzero"/><path fill="#ef4b62" d="M 194.5 276.597656 L 181.433594 276.597656 C 180.707031 276.597656 179.988281 277.175781 179.832031 277.886719 L 170.550781 320.832031 C 170.398438 321.539062 169.679688 322.121094 168.957031 322.121094 L 159.703125 322.121094 C 150.546875 322.121094 151.605469 315.789062 153.515625 307.117188 L 153.574219 306.855469 L 154.683594 300.941406 L 155.164062 298.503906 L 159.386719 277.886719 C 159.535156 277.175781 159.058594 276.59375 158.332031 276.59375 L 144.914062 276.59375 C 144.535156 276.605469 144.195312 276.730469 143.902344 276.972656 C 143.605469 277.210938 143.414062 277.515625 143.320312 277.882812 L 137.277344 306.550781 C 133.953125 321.722656 134.835938 336.191406 152.898438 336.640625 L 153.421875 336.652344 L 181.769531 336.652344 C 182.496094 336.652344 183.210938 336.074219 183.367188 335.363281 L 195.59375 277.882812 C 195.746094 277.171875 195.269531 276.59375 194.546875 276.59375 Z M 246.648438 322.269531 C 247.375 322.269531 247.808594 322.851562 247.703125 323.5625 L 246.4375 329.769531 M 245.167969 335.976562 L 246.4375 329.769531 Z M 243.574219 337.285156 L 219.488281 337.398438 Z M 243.574219 337.285156 " fill-opacity="1" fill-rule="nonzero"/><path fill="#ef4b62" d="M 211.683594 314.28125 C 211.671875 313.601562 212.445312 312.433594 213.171875 312.433594 L 211.539062 312.40625 C 210.769531 319.808594 211.683594 314.28125 211.683594 314.28125 Z M 220.675781 337.394531 L 220.425781 337.394531 Z M 246.648438 322.269531 C 247.375 322.269531 247.808594 322.851562 247.703125 323.5625 L 246.226562 330.777344 M 226.863281 337.414062 L 226.808594 337.414062 Z M 223.65625 337.394531 L 223.46875 337.394531 Z M 222.675781 337.394531 L 222.367188 337.394531 Z M 221.722656 337.394531 L 221.449219 337.394531 Z M 223.507812 337.394531 L 222.714844 337.394531 Z M 223.507812 337.394531 " fill-opacity="1" fill-rule="nonzero"/><g clip-path="url(#a803c44331)"><path fill="#ef4b62" d="M 226.8125 337.414062 L 223.660156 337.425781 Z M 243.582031 337.320312 L 226.859375 337.417969 Z M 245.128906 335.976562 L 246.191406 330.78125 L 245.128906 335.980469 Z M 222.332031 337.394531 L 221.722656 337.394531 L 222.410156 337.394531 Z M 220.417969 337.394531 L 219.492188 337.394531 Z M 221.414062 337.394531 L 220.640625 337.394531 Z M 30.175781 314.4375 L 32.207031 305.4375 L 29.886719 315.722656 L 29.617188 317.011719 L 30.179688 314.429688 Z M 54.480469 276.449219 L 40.125 276.449219 C 39.746094 276.464844 39.40625 276.589844 39.109375 276.828125 C 38.808594 277.066406 38.613281 277.367188 38.511719 277.738281 L 35.792969 289.722656 C 35.746094 289.878906 35.738281 290.039062 35.769531 290.199219 C 35.800781 290.363281 35.867188 290.507812 35.96875 290.632812 C 36.074219 290.761719 36.199219 290.859375 36.347656 290.925781 C 36.5 290.992188 36.65625 291.019531 36.820312 291.011719 L 51.289062 291.011719 C 52.015625 291.011719 52.734375 290.429688 52.886719 289.722656 L 55.519531 277.710938 C 55.671875 277.003906 55.207031 276.421875 54.472656 276.421875 Z M 51.355469 296.429688 L 47.105469 315.910156 Z M 9.652344 360.980469 L 21.492188 361.074219 C 17.996094 361.074219 12.226562 361.007812 9.648438 360.976562 Z M 9.652344 360.980469 " fill-opacity="1" fill-rule="nonzero"/></g><g clip-path="url(#e321b48f7a)"><path fill="#ef4b62" d="M 34.199219 296.429688 L 32.164062 305.433594 Z M 50.320312 295.144531 L 35.847656 295.144531 C 35.46875 295.160156 35.128906 295.285156 34.832031 295.523438 C 34.535156 295.761719 34.335938 296.0625 34.238281 296.429688 L 30.175781 314.433594 L 29.613281 317.015625 L 25.746094 335.394531 C 25.554688 336.25 25.324219 337.097656 25.050781 337.933594 C 25.050781 337.933594 22.34375 345.976562 17.804688 345.886719 L 13.300781 345.800781 C 12.921875 345.8125 12.582031 345.933594 12.28125 346.167969 C 11.980469 346.398438 11.78125 346.699219 11.675781 347.0625 L 8.679688 359.679688 C 8.632812 359.835938 8.621094 359.992188 8.652344 360.15625 C 8.679688 360.316406 8.746094 360.460938 8.847656 360.589844 C 8.945312 360.71875 9.070312 360.820312 9.21875 360.886719 C 9.367188 360.957031 9.523438 360.984375 9.6875 360.976562 L 21.53125 361.074219 C 32.882812 361.074219 38.863281 354.785156 42.703125 336.6875 L 51.402344 296.476562 C 51.558594 295.769531 51.085938 295.191406 50.359375 295.191406 Z M 255.871094 336.660156 C 255.144531 336.660156 254.710938 336.082031 254.824219 335.371094 L 265.710938 284.386719 M 270.996094 335.367188 L 275.402344 313.605469 Z M 270.996094 335.367188 " fill-opacity="1" fill-rule="nonzero"/></g><path fill="#ef4b62" d="M 254.984375 336.015625 C 254.894531 335.660156 254.945312 334.789062 255.101562 334.082031 L 260.265625 309.878906 L 254.820312 335.371094 C 254.667969 336.082031 255.140625 336.660156 255.867188 336.660156 L 257.1875 336.660156 C 256.460938 336.660156 255.070312 336.371094 254.984375 336.015625 Z M 270.140625 336.371094 C 269.746094 336.527344 268.828125 336.660156 268.101562 336.660156 L 269.421875 336.660156 C 269.800781 336.648438 270.136719 336.519531 270.429688 336.28125 C 270.726562 336.039062 270.917969 335.734375 271.007812 335.367188 L 271.269531 334.074219 C 271.128906 334.785156 270.496094 336.214844 270.109375 336.371094 Z M 273.195312 324.488281 L 275.140625 314.882812 Z M 316.144531 287.800781 L 316.742188 290.277344 C 316.910156 290.984375 316.449219 291.558594 315.726562 291.5625 " fill-opacity="1" fill-rule="nonzero"/><path fill="#ef4b62" d="M 271.257812 334.074219 L 273.191406 324.488281 Z M 315.550781 285.21875 L 316.144531 287.753906 Z M 275.140625 314.882812 L 275.675781 312.316406 L 277.75 302.589844 L 275.398438 313.601562 L 275.140625 314.878906 Z M 265.886719 283.546875 L 265.4375 285.675781 L 260.269531 309.878906 L 265.714844 284.386719 L 265.886719 283.550781 Z M 265.886719 283.546875 " fill-opacity="1" fill-rule="nonzero"/><path fill="#ef4b62" d="M 316.746094 290.277344 L 316.148438 287.800781 L 315.257812 283.933594 C 314.082031 279.371094 310.632812 276.730469 303.140625 276.730469 L 268.652344 276.707031 C 268.273438 276.722656 267.933594 276.847656 267.640625 277.085938 C 267.34375 277.328125 267.152344 277.632812 267.058594 278 L 266.527344 280.523438 L 265.753906 284.339844 L 255.144531 334.035156 C 254.988281 334.746094 254.9375 335.582031 255.027344 335.96875 C 255.117188 336.355469 256.507812 336.617188 257.230469 336.617188 L 268.132812 336.617188 C 268.863281 336.617188 269.777344 336.484375 270.175781 336.324219 C 270.574219 336.167969 271.15625 334.777344 271.335938 334.027344 L 275.472656 313.558594 L 279.898438 292.820312 C 280.054688 292.113281 280.769531 291.535156 281.492188 291.53125 L 315.800781 291.515625 C 316.523438 291.515625 316.984375 290.9375 316.816406 290.230469 Z M 360.914062 267.878906 L 358.273438 267.890625 L 347.292969 267.890625 C 346.4375 267.941406 345.75 268.304688 345.226562 268.980469 L 320.945312 304.550781 C 320.535156 305.148438 320.070312 305.0625 319.902344 304.359375 L 318.117188 296.519531 C 318.015625 296.152344 317.820312 295.847656 317.523438 295.613281 C 317.222656 295.375 316.882812 295.246094 316.503906 295.234375 L 300.894531 295.234375 C 300.167969 295.234375 299.734375 295.800781 299.9375 296.5 L 306.894531 321.007812 C 307.097656 321.703125 307.109375 322.851562 306.933594 323.558594 L 303.839844 335.417969 C 303.789062 335.570312 303.773438 335.730469 303.800781 335.890625 C 303.828125 336.050781 303.890625 336.195312 303.992188 336.328125 C 304.089844 336.457031 304.214844 336.554688 304.367188 336.617188 C 304.515625 336.683594 304.671875 336.710938 304.835938 336.695312 L 320.300781 336.695312 C 321.027344 336.695312 321.769531 336.117188 321.949219 335.421875 L 325.042969 323.5625 C 325.285156 322.722656 325.660156 321.941406 326.164062 321.226562 L 365.625 268.902344 C 366.058594 268.320312 365.824219 267.851562 365.097656 267.859375 L 360.960938 267.886719 Z M 236.894531 298.566406 C 236.800781 299.339844 236.074219 299.917969 235.347656 299.917969 L 215.550781 299.917969 C 214.867188 299.917969 214.519531 299.453125 214.621094 298.875 L 214.636719 298.769531 L 214.726562 298.433594 C 216.660156 293.40625 220.46875 290.109375 227.703125 290.109375 C 235.847656 290.109375 237.4375 294.09375 236.886719 298.566406 Z M 231.085938 275.722656 C 205.683594 275.722656 199.664062 291.140625 196.289062 306.703125 C 192.910156 322.570312 193.203125 337.402344 219.488281 337.402344 L 223.65625 337.402344 L 226.863281 337.394531 L 243.589844 337.292969 C 243.96875 337.273438 244.300781 337.144531 244.59375 336.90625 C 244.882812 336.667969 245.074219 336.363281 245.164062 335.996094 L 247.703125 323.578125 C 247.851562 322.867188 247.375 322.285156 246.648438 322.285156 L 223.015625 322.285156 C 213.621094 322.285156 210.824219 319.789062 211.855469 312.445312 L 249.628906 312.445312 C 250.25 312.433594 250.808594 312.058594 251.027344 311.472656 C 251.066406 311.367188 251.105469 311.253906 251.121094 311.144531 C 256.726562 289.992188 255.121094 275.738281 231.09375 275.738281 Z M 111.015625 298.480469 L 110.660156 299.746094 C 110.660156 299.75 107.808594 309.859375 107.808594 309.859375 L 104.953125 319.964844 C 104.832031 320.332031 104.617188 320.628906 104.3125 320.859375 C 104.003906 321.09375 103.660156 321.21875 103.277344 321.234375 L 88.175781 321.234375 C 76.722656 321.234375 73.933594 312.277344 76.722656 299.0625 C 79.503906 285.550781 84.976562 277.148438 96.246094 276.296875 C 111.652344 275.140625 114.730469 285.972656 111.015625 298.476562 Z M 121.371094 320.460938 C 121.371094 320.460938 128.484375 303.179688 130.109375 293.191406 C 132.3125 279.824219 125.625 260.441406 99.777344 260.441406 C 74.078125 260.441406 62.917969 278.945312 58.660156 299.105469 C 54.40625 319.367188 59.984375 337.136719 85.53125 337 L 124.53125 336.855469 C 124.914062 336.835938 125.257812 336.710938 125.558594 336.476562 C 125.863281 336.238281 126.070312 335.9375 126.179688 335.570312 L 129.46875 323.050781 C 129.523438 322.898438 129.535156 322.742188 129.511719 322.578125 C 129.484375 322.417969 129.421875 322.273438 129.320312 322.144531 C 129.222656 322.015625 129.097656 321.914062 128.949219 321.847656 C 128.800781 321.78125 128.644531 321.753906 128.480469 321.769531 L 122.191406 321.730469 C 121.574219 321.726562 121.222656 321.328125 121.292969 320.800781 C 121.308594 320.703125 121.332031 320.609375 121.371094 320.507812 Z M 121.371094 320.460938 " fill-opacity="1" fill-rule="nonzero"/><path fill="#ef4b62" d="M 248.59375 308.898438 C 248.59375 309.375 248.207031 309.761719 247.726562 309.761719 C 247.246094 309.761719 246.859375 309.375 246.859375 308.898438 C 246.859375 308.417969 247.246094 308.03125 247.726562 308.03125 C 248.207031 308.03125 248.59375 308.417969 248.59375 308.898438 Z M 248.59375 308.898438 " fill-opacity="1" fill-rule="nonzero"/></svg>