<svg xmlns="http://www.w3.org/2000/svg" xmlns:xlink="http://www.w3.org/1999/xlink" width="500" zoomAndPan="magnify" viewBox="0 0 375 374.999991" height="500" preserveAspectRatio="xMidYMid meet" version="1.0"><defs><clipPath id="987b7d104e"><path d="M 9.675781 9.675781 L 363.675781 9.675781 L 363.675781 363.675781 L 9.675781 363.675781 Z M 9.675781 9.675781 " clip-rule="nonzero"/></clipPath></defs><g clip-path="url(#987b7d104e)"><path fill="#ef4b62" d="M 281.082031 336.042969 C 250.1875 336.042969 230.207031 321.308594 220.46875 302.046875 L 247.558594 286.351562 C 254.699219 298.007812 263.957031 306.558594 280.367188 306.558594 C 294.140625 306.558594 302.9375 299.664062 302.9375 290.152344 C 302.9375 275.855469 283.851562 270.25 270.378906 264.484375 C 246.371094 254.265625 230.433594 241.425781 230.433594 214.320312 C 230.433594 189.367188 249.449219 170.359375 279.183594 170.359375 C 300.324219 170.359375 315.550781 177.726562 326.472656 196.96875 L 300.566406 213.613281 C 294.863281 203.390625 288.6875 199.355469 279.175781 199.355469 C 269.421875 199.355469 263.242188 205.539062 263.242188 213.613281 C 263.242188 223.597656 269.417969 227.636719 283.6875 233.820312 C 313.589844 246.628906 336.21875 256.710938 336.21875 289.679688 C 336.234375 319.644531 312.707031 336.042969 281.082031 336.042969 Z M 204.449219 285.882812 C 204.449219 320.355469 183.214844 338.578125 153.738281 338.578125 C 127.105469 338.578125 111.15625 328.394531 103.308594 310.6875 L 102.847656 310.6875 L 129.917969 291.761719 C 135.144531 301.019531 139.855469 307.589844 151.257812 307.589844 C 162.199219 307.589844 169.035156 302.054688 169.035156 285.421875 L 169.035156 169.035156 L 204.449219 169.035156 Z M 9.675781 363.804688 L 363.804688 363.804688 L 363.804688 9.675781 L 9.675781 9.675781 Z M 9.675781 363.804688 " fill-opacity="1" fill-rule="evenodd"/></g></svg>