<svg xmlns="http://www.w3.org/2000/svg" xmlns:xlink="http://www.w3.org/1999/xlink" width="500" zoomAndPan="magnify" viewBox="0 0 375 374.999991" height="500" preserveAspectRatio="xMidYMid meet" version="1.0"><defs><clipPath id="7f049412ed"><path d="M 23 110 L 352 110 L 352 250.171875 L 23 250.171875 Z M 23 110 " clip-rule="nonzero"/></clipPath></defs><g clip-path="url(#7f049412ed)"><path fill="#ef4b62" d="M 37.78125 199.066406 C 37.78125 193.476562 34.1875 187.492188 23.808594 187.089844 L 23.808594 173.121094 C 34.148438 172.722656 37.78125 166.730469 37.78125 161.148438 C 37.78125 151.167969 36.183594 144.785156 36.183594 133.203125 C 36.183594 115.640625 42.574219 110.050781 56.945312 110.050781 L 95.265625 110.050781 L 95.265625 122.824219 L 64.128906 122.824219 C 57.34375 122.824219 55.34375 125.21875 55.34375 134 L 56.140625 160.347656 C 56.140625 172.722656 52.152344 177.511719 44.167969 179.511719 L 44.167969 180.308594 C 52.152344 182.304688 56.140625 187.09375 56.140625 199.472656 L 55.34375 225.820312 C 55.34375 234.605469 57.339844 237.394531 64.128906 237.394531 L 67.324219 237.394531 L 67.324219 249.769531 L 56.980469 249.769531 C 42.613281 249.769531 36.222656 244.179688 36.222656 226.617188 C 36.222656 215.042969 37.816406 209.054688 37.816406 199.074219 Z M 71.714844 111.242188 L 95.667969 111.242188 L 95.667969 201.0625 C 95.667969 206.25 98.0625 207.847656 100.0625 207.847656 C 100.863281 207.847656 101.660156 207.847656 102.859375 207.449219 L 105.65625 225.011719 C 102.859375 226.207031 98.871094 227.003906 93.679688 227.003906 C 77.316406 227.003906 71.726562 216.226562 71.726562 199.855469 Z M 139.179688 142.378906 C 161.933594 142.378906 173.511719 159.148438 173.511719 181.101562 C 173.511719 185.496094 173.113281 189.085938 172.714844 191.082031 L 123.613281 191.082031 C 125.605469 203.453125 133.953125 208.644531 144.769531 208.644531 C 150.753906 208.644531 156.34375 207.046875 162.332031 203.453125 L 170.320312 217.824219 C 161.933594 223.410156 151.15625 227.003906 141.574219 227.003906 C 118.421875 227.003906 100.855469 211.4375 100.855469 184.691406 C 100.457031 158.742188 119.617188 142.375 139.175781 142.375 Z M 153.152344 176.3125 C 153.152344 167.128906 149.164062 160.34375 139.578125 160.34375 C 131.996094 160.34375 125.605469 165.535156 124.011719 176.3125 Z M 187.089844 201.0625 C 194.273438 206.648438 201.0625 209.445312 207.847656 209.445312 C 215.03125 209.445312 218.1875 206.648438 218.1875 202.660156 C 218.1875 197.472656 210.203125 194.675781 201.824219 191.484375 C 192.246094 187.890625 180.667969 181.140625 180.667969 167.929688 C 180.667969 153.152344 193.042969 142.773438 211.40625 142.773438 C 223.78125 142.773438 232.964844 147.964844 239.75 153.117188 L 228.972656 167.484375 C 222.988281 163.089844 217.792969 160.699219 211.804688 160.699219 C 205.820312 160.699219 202.625 163.09375 202.625 167.089844 C 202.625 172.28125 210.207031 174.273438 218.59375 177.433594 C 228.933594 181.027344 240.546875 187.015625 240.546875 201.785156 C 240.546875 216.554688 228.972656 227.734375 207.414062 227.734375 C 197.070312 227.734375 184.660156 223.339844 176.675781 216.554688 Z M 252.160156 201.0625 C 259.34375 206.648438 266.132812 209.445312 272.917969 209.445312 C 280.101562 209.445312 283.261719 206.648438 283.261719 202.660156 C 283.261719 197.472656 275.277344 194.675781 266.898438 191.484375 C 257.316406 187.890625 245.742188 181.140625 245.742188 167.929688 C 245.742188 153.152344 258.113281 142.773438 276.480469 142.773438 C 288.855469 142.773438 298.035156 147.964844 304.820312 153.117188 L 294.042969 167.484375 C 288.058594 163.089844 282.867188 160.699219 276.878906 160.699219 C 270.890625 160.699219 267.695312 163.09375 267.695312 167.089844 C 267.695312 172.28125 275.28125 174.273438 283.265625 177.433594 C 293.609375 181.027344 305.222656 187.015625 305.222656 201.785156 C 305.222656 216.554688 293.644531 227.734375 272.089844 227.734375 C 261.746094 227.734375 249.335938 223.339844 241.347656 216.554688 Z M 311.238281 236.984375 C 318.023438 236.984375 320.023438 234.59375 320.023438 225.410156 C 320.023438 216.625 319.222656 208.640625 319.222656 199.0625 C 319.222656 186.6875 323.214844 181.898438 331.199219 179.898438 L 331.199219 179.101562 C 323.214844 177.105469 319.222656 172.316406 319.222656 159.9375 C 319.222656 150.355469 320.023438 141.976562 320.023438 133.589844 C 320.023438 124.808594 318.425781 122.414062 311.238281 122.414062 L 308.042969 122.414062 L 308.042969 110.039062 L 318.386719 110.039062 C 332.753906 110.039062 339.144531 115.628906 339.144531 133.191406 C 339.144531 144.371094 337.546875 150.757812 337.546875 161.136719 C 337.546875 166.722656 341.140625 172.710938 351.523438 173.109375 L 351.523438 187.085938 C 341.179688 187.484375 337.546875 193.472656 337.546875 199.058594 C 337.546875 209.402344 339.144531 215.421875 339.144531 227.003906 C 339.144531 244.566406 332.753906 250.15625 318.386719 250.15625 L 308.042969 250.15625 L 308.042969 237.390625 Z M 311.238281 236.984375 " fill-opacity="1" fill-rule="nonzero"/></g></svg>