<svg xmlns="http://www.w3.org/2000/svg" xmlns:xlink="http://www.w3.org/1999/xlink" width="500" zoomAndPan="magnify" viewBox="0 0 375 374.999991" height="500" preserveAspectRatio="xMidYMid meet" version="1.0"><defs><clipPath id="83c0bdb895"><path d="M 6 2 L 364 2 L 364 354 L 6 354 Z M 6 2 " clip-rule="nonzero"/></clipPath><clipPath id="c89d6e93be"><path d="M -0.125 -14.660156 L 377.792969 -6.742188 L 369.875 371.175781 L -8.039062 363.257812 Z M -0.125 -14.660156 " clip-rule="nonzero"/></clipPath><clipPath id="f484e87099"><path d="M 126 129 L 287 129 L 287 280 L 126 280 Z M 126 129 " clip-rule="nonzero"/></clipPath><clipPath id="16c60ec72d"><path d="M -0.125 -14.660156 L 377.792969 -6.742188 L 369.875 371.175781 L -8.039062 363.257812 Z M -0.125 -14.660156 " clip-rule="nonzero"/></clipPath><clipPath id="3863cd6a67"><path d="M 30 25 L 340 25 L 340 331 L 30 331 Z M 30 25 " clip-rule="nonzero"/></clipPath><clipPath id="188e9e2f3d"><path d="M -0.125 -14.660156 L 377.792969 -6.742188 L 369.875 371.175781 L -8.039062 363.257812 Z M -0.125 -14.660156 " clip-rule="nonzero"/></clipPath></defs><g clip-path="url(#83c0bdb895)"><g clip-path="url(#c89d6e93be)"><path fill="#262626" d="M 60.167969 331.902344 L 20.601562 280.4375 C 11.078125 268.054688 6.089844 252.96875 6.410156 237.554688 L 10.25 54.28125 C 10.734375 31.195312 29.605469 12.425781 53.46875 11.296875 L 242.167969 2.378906 C 255.878906 1.730469 269.40625 5.65625 280.492188 13.492188 L 345.761719 59.640625 C 357.445312 67.902344 364.226562 81.148438 363.933594 95.125 L 359.570312 303.492188 C 359.097656 326.085938 340.542969 344.410156 317.183594 345.359375 L 107.777344 353.851562 C 89.136719 354.605469 71.304688 346.386719 60.167969 331.902344 Z M 60.167969 331.902344 " fill-opacity="1" fill-rule="evenodd"/></g></g><g clip-path="url(#f484e87099)"><g clip-path="url(#16c60ec72d)"><path fill="#ef4b62" d="M 129.386719 148.527344 L 129.4375 146.128906 C 129.566406 140.046875 134.542969 135.105469 140.832031 134.816406 L 186.625 132.722656 L 247.917969 227.175781 L 249.628906 145.4375 L 233.394531 142.925781 L 233.421875 141.789062 C 233.550781 135.632812 238.636719 130.660156 245.003906 130.46875 L 286.660156 129.207031 L 286.535156 135.195312 C 286.476562 138.007812 284.332031 140.367188 281.457031 140.792969 L 271.410156 142.277344 L 268.636719 274.648438 L 255.980469 278.707031 C 245.40625 282.097656 233.796875 277.988281 227.976562 268.792969 L 168.519531 174.855469 L 166.667969 263.285156 L 185.492188 267.296875 L 185.191406 269.042969 C 184.25 274.519531 179.421875 278.570312 173.683594 278.707031 L 126.636719 279.816406 C 126.140625 273.894531 130.675781 268.707031 136.792969 268.195312 L 142.992188 267.671875 L 145.460938 149.769531 Z M 129.386719 148.527344 " fill-opacity="1" fill-rule="nonzero"/></g></g><g clip-path="url(#3863cd6a67)"><g clip-path="url(#188e9e2f3d)"><path fill="#ef4b62" d="M 243.371094 25.503906 L 54.667969 34.421875 C 43.367188 34.957031 34.425781 43.847656 34.199219 54.78125 L 30.359375 238.058594 C 30.144531 248.332031 33.472656 258.390625 39.820312 266.644531 L 79.386719 318.109375 C 85.785156 326.429688 96.027344 331.152344 106.738281 330.71875 L 316.144531 322.226562 C 326.875 321.789062 335.402344 313.371094 335.617188 302.988281 L 339.984375 94.625 C 340.117188 88.203125 337 82.117188 331.632812 78.320312 L 266.367188 32.171875 C 259.714844 27.46875 251.597656 25.113281 243.371094 25.503906 Z M 63.519531 58.257812 C 60.9375 56.261719 62.269531 52.246094 65.566406 52.078125 L 244.273438 43.015625 C 249.964844 42.726562 255.582031 44.414062 260.113281 47.765625 L 295.382812 73.882812 C 296.722656 74.871094 296.039062 76.9375 294.355469 76.996094 L 105.175781 83.3125 C 99.453125 83.503906 93.84375 81.707031 89.367188 78.246094 Z M 95.640625 115.34375 C 95.769531 109.207031 100.832031 104.238281 107.183594 104.027344 L 307.199219 97.332031 C 313.386719 97.125 318.488281 101.988281 318.363281 107.96875 L 314.585938 288.390625 C 314.457031 294.519531 309.410156 299.480469 303.070312 299.710938 L 104.3125 306.847656 C 97.425781 307.09375 91.734375 301.6875 91.875 295.027344 Z M 95.640625 115.34375 " fill-opacity="1" fill-rule="evenodd"/></g></g></svg>