<svg width="120" height="120" viewBox="0 0 120 120" fill="none" xmlns="http://www.w3.org/2000/svg">
<path d="M120 60C120 93.1371 93.1371 120 60 120C26.8629 120 0 93.1371 0 60C0 26.8629 26.8629 0 60 0C93.1371 0 120 26.8629 120 60Z" fill="#EF4B62"/>
<path d="M60 16.8932L116.25 58.8349L60 100.777L3.75 58.8349L60 16.8932Z" fill="#262626"/>
<path d="M86.7857 58.835C86.7857 72.6689 75.273 83.8835 61.0714 83.8835C46.8698 83.8835 35.3571 72.6689 35.3571 58.835C35.3571 45.001 46.8698 33.7864 61.0714 33.7864C75.273 33.7864 86.7857 45.001 86.7857 58.835Z" fill="#EF4B62"/>
<path d="M41 75C41 75 44.625 63 58.125 55C71.625 47 85.5 50 85.5 50C85.5 50 85.5 46.5 83 44.5C82.127 43.8016 80 42 80 42C69 42 59.5 46.5 53.5 50C47.5 53.5 36 65 36 65C36 65 36.5 67 37.5 70C38.5 73 41 75 41 75Z" fill="#262626"/>
</svg>
