<svg xmlns="http://www.w3.org/2000/svg" xmlns:xlink="http://www.w3.org/1999/xlink" width="500" zoomAndPan="magnify" viewBox="0 0 375 374.999991" height="500" preserveAspectRatio="xMidYMid meet" version="1.0"><defs><clipPath id="42a8d08811"><path d="M 12.609375 32 L 362.109375 32 L 362.109375 343 L 12.609375 343 Z M 12.609375 32 " clip-rule="nonzero"/></clipPath></defs><g clip-path="url(#42a8d08811)"><path fill="#ef4b62" d="M 299.957031 132.851562 C 296.34375 131.605469 292.59375 130.425781 288.722656 129.308594 C 289.363281 126.71875 289.949219 124.160156 290.464844 121.644531 C 298.960938 80.359375 293.410156 47.09375 274.417969 36.144531 C 256.203125 25.644531 226.421875 36.59375 196.34375 62.765625 C 193.453125 65.285156 190.550781 67.949219 187.660156 70.742188 C 185.722656 68.894531 183.800781 67.109375 181.878906 65.398438 C 150.351562 37.414062 118.757812 25.617188 99.785156 36.601562 C 81.589844 47.132812 76.203125 78.402344 83.863281 117.53125 C 84.601562 121.308594 85.464844 125.171875 86.441406 129.09375 C 81.96875 130.363281 77.652344 131.714844 73.523438 133.15625 C 36.566406 146.039062 12.964844 166.234375 12.964844 187.179688 C 12.964844 208.804688 38.304688 230.511719 76.792969 243.671875 C 79.832031 244.707031 82.984375 245.6875 86.230469 246.617188 C 85.175781 250.855469 84.261719 255.015625 83.492188 259.078125 C 76.191406 297.53125 81.890625 328.058594 100.035156 338.515625 C 118.777344 349.328125 150.230469 338.214844 180.855469 311.449219 C 183.28125 309.335938 185.707031 307.085938 188.136719 304.742188 C 191.300781 307.769531 194.449219 310.644531 197.570312 313.347656 C 227.242188 338.871094 256.542969 349.179688 274.664062 338.695312 C 293.382812 327.855469 299.480469 295.046875 291.570312 255.152344 C 290.972656 252.097656 290.261719 248.988281 289.484375 245.824219 C 291.695312 245.171875 293.863281 244.488281 295.976562 243.792969 C 335.992188 230.527344 362.023438 209.105469 362.023438 187.179688 C 362.023438 166.15625 337.65625 145.828125 299.957031 132.851562 Z M 291.285156 229.640625 C 289.375 230.269531 287.414062 230.882812 285.421875 231.46875 C 281.003906 217.492188 275.046875 202.617188 267.738281 187.25 C 274.703125 172.25 280.429688 157.570312 284.726562 143.675781 C 288.296875 144.710938 291.761719 145.800781 295.101562 146.949219 C 327.402344 158.070312 347.105469 174.515625 347.105469 187.179688 C 347.105469 200.667969 325.835938 218.1875 291.285156 229.640625 Z M 276.941406 258.042969 C 280.445312 275.6875 280.933594 291.640625 278.617188 304.113281 C 276.546875 315.324219 272.359375 322.796875 267.191406 325.78125 C 256.1875 332.148438 232.667969 323.871094 207.304688 302.042969 C 204.386719 299.535156 201.457031 296.859375 198.527344 294.039062 C 208.355469 283.28125 218.1875 270.777344 227.785156 256.882812 C 244.652344 255.398438 260.59375 252.941406 275.058594 249.601562 C 275.769531 252.480469 276.394531 255.289062 276.941406 258.042969 Z M 131.972656 324.675781 C 121.226562 328.480469 112.664062 328.589844 107.492188 325.605469 C 96.480469 319.25 91.902344 294.734375 98.148438 261.859375 C 98.863281 258.097656 99.714844 254.222656 100.695312 250.269531 C 114.992188 253.433594 130.820312 255.710938 147.734375 257.074219 C 157.394531 270.667969 167.511719 283.15625 177.695312 294.09375 C 175.472656 296.246094 173.25 298.292969 171.042969 300.214844 C 157.503906 312.0625 143.933594 320.464844 131.972656 324.675781 Z M 81.621094 229.558594 C 64.601562 223.738281 50.546875 216.183594 40.910156 207.921875 C 32.253906 200.515625 27.882812 193.152344 27.882812 187.179688 C 27.882812 174.472656 46.832031 158.257812 78.4375 147.238281 C 82.273438 145.898438 86.285156 144.640625 90.453125 143.457031 C 94.820312 157.664062 100.550781 172.523438 107.464844 187.535156 C 100.460938 202.78125 94.648438 217.875 90.238281 232.257812 C 87.269531 231.398438 84.390625 230.5 81.621094 229.558594 Z M 98.5 114.667969 C 91.941406 81.140625 96.296875 55.851562 107.261719 49.503906 C 118.9375 42.746094 144.761719 52.382812 171.96875 76.550781 C 173.714844 78.09375 175.460938 79.710938 177.21875 81.382812 C 167.074219 92.273438 157.054688 104.671875 147.480469 118.183594 C 131.0625 119.703125 115.347656 122.148438 100.898438 125.421875 C 99.992188 121.765625 99.1875 118.175781 98.5 114.667969 Z M 249.058594 151.847656 C 245.609375 145.878906 242.0625 140.054688 238.449219 134.390625 C 249.589844 135.796875 260.253906 137.667969 270.273438 139.953125 C 267.273438 149.59375 263.523438 159.675781 259.105469 170.015625 C 255.945312 164 252.589844 157.9375 249.058594 151.847656 Z M 187.660156 92.042969 C 194.546875 99.492188 201.429688 107.8125 208.207031 116.839844 C 201.375 116.515625 194.464844 116.347656 187.496094 116.347656 C 180.597656 116.347656 173.738281 116.511719 166.949219 116.828125 C 173.726562 107.886719 180.679688 99.578125 187.660156 92.042969 Z M 125.867188 151.949219 C 122.417969 157.929688 119.132812 163.960938 116.015625 170 C 111.671875 159.703125 107.957031 149.574219 104.921875 139.796875 C 114.882812 137.566406 125.503906 135.746094 136.570312 134.363281 C 132.902344 140.082031 129.328125 145.949219 125.867188 151.949219 Z M 136.886719 241.054688 C 125.453125 239.785156 114.675781 238.054688 104.71875 235.886719 C 107.800781 225.933594 111.597656 215.597656 116.03125 205.070312 C 119.15625 211.109375 122.457031 217.136719 125.925781 223.136719 L 125.929688 223.136719 C 129.464844 229.246094 133.128906 235.21875 136.886719 241.054688 Z M 188.070312 283.363281 C 181.003906 275.742188 173.957031 267.300781 167.070312 258.234375 C 173.753906 258.492188 180.570312 258.628906 187.496094 258.628906 C 194.613281 258.628906 201.648438 258.464844 208.5625 258.164062 C 201.773438 267.394531 194.898438 275.851562 188.070312 283.363281 Z M 259.242188 204.539062 C 263.90625 215.175781 267.847656 225.453125 270.96875 235.246094 C 260.851562 237.550781 249.917969 239.402344 238.410156 240.792969 C 242.035156 235.054688 245.609375 229.121094 249.125 223.027344 C 252.683594 216.863281 256.054688 210.6875 259.242188 204.539062 Z M 236.199219 215.582031 C 230.746094 225.046875 225.140625 234.070312 219.457031 242.59375 C 209.109375 243.332031 198.402344 243.710938 187.496094 243.710938 C 176.628906 243.710938 166.0625 243.386719 155.890625 242.714844 C 149.972656 234.085938 144.253906 225.03125 138.832031 215.664062 C 133.425781 206.324219 128.449219 196.902344 123.9375 187.535156 C 128.445312 178.15625 133.410156 168.71875 138.789062 159.398438 L 138.785156 159.398438 C 144.175781 150.050781 149.851562 141.039062 155.710938 132.453125 C 166.089844 131.667969 176.738281 131.261719 187.496094 131.261719 C 198.308594 131.261719 208.957031 131.671875 219.332031 132.464844 C 225.113281 140.984375 230.746094 149.96875 236.160156 159.316406 C 241.628906 168.773438 246.660156 178.140625 251.199219 187.332031 C 246.671875 196.671875 241.65625 206.132812 236.199219 215.582031 Z M 266.960938 49.058594 C 278.660156 55.800781 283.199219 82.984375 275.851562 118.632812 C 275.386719 120.90625 274.855469 123.222656 274.28125 125.570312 C 259.800781 122.230469 244.082031 119.742188 227.625 118.199219 C 218.023438 104.539062 208.085938 92.125 198.105469 81.375 C 200.789062 78.792969 203.476562 76.332031 206.136719 74.011719 C 231.90625 51.585938 256 42.730469 266.960938 49.058594 Z M 187.496094 156.003906 C 204.703125 156.003906 218.664062 169.957031 218.664062 187.175781 C 218.664062 204.382812 204.703125 218.347656 187.496094 218.347656 C 170.289062 218.347656 156.328125 204.382812 156.328125 187.175781 C 156.328125 169.957031 170.289062 156.003906 187.496094 156.003906 Z M 187.496094 156.003906 " fill-opacity="1" fill-rule="nonzero"/></g></svg>