<svg xmlns="http://www.w3.org/2000/svg" xmlns:xlink="http://www.w3.org/1999/xlink" width="500" zoomAndPan="magnify" viewBox="0 0 375 374.999991" height="500" preserveAspectRatio="xMidYMid meet" version="1.0"><path fill="#ef4b62" d="M 142.589844 56.273438 C 155.53125 39.925781 179.894531 31.851562 196.503906 31.433594 C 243.078125 30.542969 262.492188 89.191406 263.988281 112.503906 L 285.550781 119.039062 C 280.582031 47.566406 236.617188 10.074219 194.546875 10.074219 C 155.097656 10.0625 118.671875 39.046875 103.992188 81.546875 C 83.941406 138.210938 97.097656 192.683594 121.679688 236.277344 C 119.535156 239.113281 118.238281 244.105469 118.671875 248.898438 C 119.089844 261.980469 130.085938 272.878906 143.253906 272.878906 L 144.117188 272.878906 C 157.917969 272.445312 168.484375 260.902344 167.835938 247.160156 C 167.835938 234.074219 156.625 223.210938 143.46875 223.210938 L 142.589844 223.210938 C 141.726562 223.210938 140.445312 223.210938 139.351562 223.628906 C 121.464844 193.117188 113.90625 160.417969 116.730469 125.140625 C 118.441406 98.542969 127.078125 75.445312 142.589844 56.273438 Z M 142.589844 56.273438 " fill-opacity="1" fill-rule="nonzero"/><path fill="#ef4b62" d="M 38.679688 303.632812 C 53.128906 325.421875 82.675781 339.355469 115.015625 339.355469 C 123.636719 339.355469 132.703125 338.722656 141.539062 336.535156 C 197.613281 325.640625 240.097656 291.644531 264.464844 241.53125 L 264.667969 241.085938 C 277.171875 239.992188 286.875 228.867188 286.238281 215.566406 C 285.578125 202.269531 274.796875 191.605469 261.65625 191.605469 L 260.78125 191.605469 C 247.207031 192.050781 236.628906 203.59375 237.0625 217.335938 C 237.492188 224.304688 240.3125 229.972656 244.171875 234.105469 C 229.089844 263.753906 206.449219 285.527344 172.152344 303.847656 C 149.082031 316.039062 124.714844 320.628906 100.996094 317.363281 C 81.164062 314.542969 65.652344 305.578125 56.152344 291.214844 C 41.933594 269.410156 40.636719 245.890625 52.480469 222.359375 C 61.132812 205.363281 74.054688 192.941406 82.691406 186.828125 C 80.53125 181.171875 77.941406 171.585938 76.644531 164.402344 C 12.789062 210.585938 19.277344 273.769531 38.679688 303.632812 Z M 38.679688 303.632812 " fill-opacity="1" fill-rule="nonzero"/><path fill="#ef4b62" d="M 362.980469 294.019531 C 375.902344 267.867188 374.839844 223.855469 341.835938 186.148438 L 341.636719 186.582031 C 308.230469 146.917969 259.054688 125.125 202.964844 125.125 L 195.625 125.125 C 191.984375 117.066406 183.582031 112.042969 174.082031 112.042969 L 173.433594 112.042969 C 159.863281 112.042969 149.285156 123.832031 149.730469 137.546875 C 150.160156 150.617188 161.15625 161.523438 174.3125 161.523438 L 175.375 161.523438 C 185.089844 161.09375 193.496094 154.976562 196.9375 146.269531 L 204.925781 146.269531 C 238.15625 146.269531 269.617188 156.070312 298.316406 175.242188 C 320.292969 189.847656 336.050781 209.019531 344.886719 231.902344 C 352.632812 250.640625 352.214844 268.949219 344.242188 284.21875 C 331.949219 308.179688 311.238281 320.832031 283.863281 320.832031 C 266.609375 320.832031 249.800781 315.378906 241.164062 311.460938 C 235.996094 315.792969 227.363281 322.992188 221.101562 327.367188 C 240.070312 336.058594 259.269531 341.082031 277.804688 341.082031 C 319.859375 341.082031 351.105469 317.132812 362.980469 294.019531 Z M 362.980469 294.019531 " fill-opacity="1" fill-rule="nonzero"/></svg>