<svg xmlns="http://www.w3.org/2000/svg" xmlns:xlink="http://www.w3.org/1999/xlink" width="500" zoomAndPan="magnify" viewBox="0 0 375 374.999991" height="500" preserveAspectRatio="xMidYMid meet" version="1.0"><defs><clipPath id="5211a3f661"><path d="M 7.15625 7.15625 L 367.90625 7.15625 L 367.90625 367.90625 L 7.15625 367.90625 Z M 7.15625 7.15625 " clip-rule="nonzero"/></clipPath></defs><g clip-path="url(#5211a3f661)"><path fill="#ef4b62" d="M 187.496094 367.835938 C 287.089844 367.835938 367.835938 287.089844 367.835938 187.496094 C 367.835938 87.90625 287.089844 7.15625 187.496094 7.15625 C 87.90625 7.15625 7.15625 87.90625 7.15625 187.496094 C 7.15625 287.089844 87.90625 367.835938 187.496094 367.835938 Z M 103.503906 108.734375 C 126.78125 86.957031 159.167969 70.261719 189.058594 59.636719 C 239.328125 41.765625 292.453125 52.300781 300.601562 84.359375 L 299.503906 83.351562 C 307.394531 114.910156 280.117188 152.570312 245.191406 166.082031 C 214.082031 178.238281 188.144531 176.226562 177.5625 172.84375 C 165.375 168.785156 158.386719 160.898438 156.582031 156.386719 C 155.90625 154.585938 154.78125 151.65625 156.582031 150.753906 C 157.710938 150.0625 158.160156 150.285156 161.300781 153.667969 C 164.25 156.839844 175.746094 165.390625 197.835938 162.910156 C 255.769531 156.386719 290.472656 111.515625 279.457031 87.410156 C 271.789062 70.5 227.367188 62.820312 171.6875 90.5625 C 103.835938 124.378906 100.003906 152.316406 99.550781 162.910156 C 97.972656 191.992188 135.621094 207.320312 155.90625 229.1875 C 156.570312 229.636719 157.035156 230.085938 157.484375 230.761719 C 163.558594 228.285156 172.136719 227.15625 185.664062 226.917969 C 218.5625 226.480469 237.058594 248.105469 236.382812 267.492188 C 235.707031 282.835938 221.714844 289.148438 219.238281 289.597656 C 217.449219 289.824219 216.304688 289.824219 216.082031 288.472656 C 215.871094 287.554688 216.546875 287.121094 218.800781 285.753906 C 221.070312 284.398438 227.578125 279.664062 228.929688 271.566406 C 230.296875 263.449219 223.984375 243.613281 192.410156 240.007812 C 181.140625 238.636719 172.363281 239.539062 164.910156 241.570312 C 170.351562 253.515625 171.460938 277.863281 158.839844 296.8125 C 145.761719 316.183594 121.417969 328.148438 97.746094 321.59375 C 90.082031 319.582031 78.363281 303.785156 88.503906 281.695312 C 97.972656 260.714844 138.382812 240.441406 143.898438 237.738281 L 143.898438 237.648438 C 125.175781 221.519531 79.640625 199.789062 73.222656 166.5625 C 71.402344 157.140625 75.804688 134.597656 103.503906 108.734375 Z M 103.503906 108.734375 " fill-opacity="1" fill-rule="nonzero"/></g><path fill="#ef4b62" d="M 109.394531 304.132812 C 115.675781 307.769531 130.3125 303.441406 140.804688 292.035156 C 144.246094 288.277344 147.039062 284.21875 149.144531 279.859375 C 149.535156 279.019531 149.957031 278.132812 150.316406 277.214844 L 151.292969 274.511719 C 154 266.335938 154.285156 257.273438 151.65625 247.582031 L 150.03125 248.496094 L 150.03125 248.542969 C 150.03125 248.542969 131.261719 257.421875 118.171875 271.21875 C 106 284.070312 102.632812 300.195312 109.394531 304.132812 Z M 109.394531 304.132812 " fill-opacity="1" fill-rule="nonzero"/></svg>