<svg xmlns="http://www.w3.org/2000/svg" xmlns:xlink="http://www.w3.org/1999/xlink" width="500" zoomAndPan="magnify" viewBox="0 0 375 374.999991" height="500" preserveAspectRatio="xMidYMid meet" version="1.0"><path fill="#ef4b62" d="M 191.902344 297.789062 C 143.316406 297.789062 119.945312 274.515625 102.878906 257.519531 C 99.785156 253.664062 96.257812 250.253906 92.292969 247.296875 C 88.328125 244.339844 84.058594 241.929688 79.480469 240.0625 C 69.253906 237.554688 55.46875 237.386719 39.640625 258.082031 C 39.019531 258.894531 38.335938 259.644531 37.589844 260.339844 C 36.839844 261.035156 36.039062 261.65625 35.183594 262.214844 C 34.328125 262.769531 33.433594 263.25 32.496094 263.652344 C 31.558594 264.054688 30.59375 264.375 29.601562 264.609375 C 28.609375 264.847656 27.601562 264.996094 26.585938 265.0625 C 25.566406 265.125 24.550781 265.101562 23.535156 264.992188 C 22.523438 264.882812 21.523438 264.6875 20.542969 264.40625 C 19.5625 264.125 18.613281 263.761719 17.695312 263.316406 C 16.777344 262.871094 15.902344 262.351562 15.074219 261.757812 C 14.246094 261.164062 13.472656 260.503906 12.757812 259.777344 C 12.042969 259.050781 11.394531 258.265625 10.8125 257.429688 C 10.230469 256.589844 9.722656 255.710938 9.292969 254.785156 C 8.863281 253.859375 8.515625 252.90625 8.25 251.921875 C 7.980469 250.933594 7.800781 249.933594 7.707031 248.917969 C 7.613281 247.902344 7.605469 246.886719 7.683594 245.871094 C 7.765625 244.851562 7.929688 243.851562 8.183594 242.863281 C 21.324219 191.296875 56.082031 164.039062 108.691406 164.039062 C 157.277344 164.039062 180.648438 187.3125 197.714844 204.304688 C 200.808594 208.164062 204.335938 211.570312 208.300781 214.527344 C 212.261719 217.484375 216.535156 219.898438 221.113281 221.765625 C 231.347656 224.261719 245.125 224.441406 260.953125 203.746094 C 261.570312 202.933594 262.253906 202.179688 263.003906 201.488281 C 263.75 200.792969 264.554688 200.167969 265.40625 199.613281 C 266.261719 199.054688 267.160156 198.578125 268.097656 198.175781 C 269.035156 197.773438 270 197.453125 270.992188 197.214844 C 271.984375 196.980469 272.988281 196.828125 274.007812 196.765625 C 275.027344 196.703125 276.042969 196.722656 277.054688 196.835938 C 278.070312 196.945312 279.066406 197.140625 280.046875 197.421875 C 281.027344 197.703125 281.976562 198.066406 282.894531 198.511719 C 283.816406 198.953125 284.6875 199.472656 285.515625 200.070312 C 286.347656 200.664062 287.121094 201.324219 287.835938 202.050781 C 288.550781 202.777344 289.199219 203.558594 289.78125 204.398438 C 290.363281 205.234375 290.867188 206.117188 291.300781 207.042969 C 291.730469 207.96875 292.078125 208.921875 292.34375 209.90625 C 292.609375 210.890625 292.789062 211.890625 292.886719 212.90625 C 292.980469 213.921875 292.988281 214.941406 292.90625 215.957031 C 292.828125 216.972656 292.664062 217.976562 292.410156 218.964844 C 279.269531 270.53125 244.511719 297.789062 191.902344 297.789062 Z M 80.523438 203.984375 C 83.027344 204.339844 85.511719 204.824219 87.96875 205.429688 C 91.855469 206.65625 95.636719 208.152344 99.3125 209.917969 C 102.984375 211.683594 106.515625 213.699219 109.90625 215.964844 C 113.292969 218.234375 116.5 220.730469 119.535156 223.457031 C 122.566406 226.179688 125.390625 229.105469 128.003906 232.234375 C 143.464844 247.613281 158.042969 262.121094 191.902344 262.121094 C 201.539062 262.324219 210.929688 260.898438 220.070312 257.84375 C 217.5625 257.484375 215.082031 257.003906 212.625 256.398438 C 208.738281 255.171875 204.957031 253.675781 201.28125 251.910156 C 197.605469 250.144531 194.074219 248.128906 190.6875 245.859375 C 187.300781 243.59375 184.089844 241.097656 181.058594 238.371094 C 178.027344 235.648438 175.203125 232.71875 172.589844 229.59375 C 157.125 214.210938 142.546875 199.703125 108.691406 199.703125 C 99.054688 199.503906 89.664062 200.929688 80.523438 203.984375 Z M 263.234375 181.871094 C 214.648438 181.871094 191.257812 158.582031 174.183594 141.578125 C 171.09375 137.722656 167.570312 134.320312 163.613281 131.367188 C 159.652344 128.417969 155.386719 126.007812 150.8125 124.144531 C 140.585938 121.640625 126.800781 121.46875 110.972656 142.164062 C 110.355469 142.976562 109.671875 143.730469 108.921875 144.421875 C 108.175781 145.117188 107.375 145.742188 106.519531 146.296875 C 105.664062 146.851562 104.765625 147.332031 103.828125 147.734375 C 102.890625 148.136719 101.925781 148.457031 100.933594 148.691406 C 99.941406 148.929688 98.9375 149.078125 97.917969 149.144531 C 96.902344 149.207031 95.882812 149.183594 94.871094 149.074219 C 93.855469 148.964844 92.859375 148.769531 91.878906 148.488281 C 90.898438 148.207031 89.949219 147.84375 89.03125 147.398438 C 88.113281 146.953125 87.238281 146.433594 86.410156 145.839844 C 85.578125 145.246094 84.808594 144.585938 84.089844 143.859375 C 83.375 143.132812 82.726562 142.351562 82.144531 141.511719 C 81.5625 140.675781 81.058594 139.792969 80.628906 138.867188 C 80.195312 137.941406 79.847656 136.988281 79.582031 136.003906 C 79.316406 135.019531 79.136719 134.019531 79.039062 133.003906 C 78.945312 131.984375 78.9375 130.96875 79.019531 129.953125 C 79.097656 128.9375 79.261719 127.933594 79.515625 126.945312 C 92.660156 75.378906 127.414062 48.121094 180.023438 48.121094 C 228.613281 48.121094 251.984375 71.394531 269.050781 88.386719 C 272.140625 92.246094 275.671875 95.65625 279.632812 98.613281 C 283.597656 101.570312 287.867188 103.980469 292.445312 105.847656 C 302.683594 108.34375 316.460938 108.523438 332.285156 87.828125 C 332.90625 87.015625 333.589844 86.261719 334.335938 85.570312 C 335.085938 84.875 335.886719 84.25 336.742188 83.695312 C 337.597656 83.140625 338.492188 82.660156 339.429688 82.257812 C 340.367188 81.855469 341.332031 81.535156 342.324219 81.300781 C 343.316406 81.0625 344.324219 80.914062 345.339844 80.847656 C 346.359375 80.785156 347.375 80.808594 348.390625 80.917969 C 349.402344 81.027344 350.402344 81.222656 351.382812 81.503906 C 352.363281 81.785156 353.3125 82.148438 354.230469 82.59375 C 355.148438 83.039062 356.023438 83.558594 356.851562 84.152344 C 357.679688 84.746094 358.453125 85.40625 359.167969 86.132812 C 359.882812 86.859375 360.535156 87.640625 361.113281 88.480469 C 361.695312 89.316406 362.203125 90.199219 362.632812 91.125 C 363.0625 92.050781 363.410156 93.003906 363.675781 93.988281 C 363.945312 94.972656 364.125 95.972656 364.21875 96.988281 C 364.3125 98.007812 364.320312 99.023438 364.242188 100.039062 C 364.164062 101.054688 363.996094 102.058594 363.746094 103.046875 C 350.601562 154.613281 315.84375 181.871094 263.234375 181.871094 Z M 151.855469 88.066406 C 154.363281 88.425781 156.84375 88.90625 159.300781 89.511719 C 163.191406 90.738281 166.972656 92.234375 170.644531 94 C 174.320312 95.765625 177.851562 97.78125 181.238281 100.050781 C 184.625 102.316406 187.835938 104.8125 190.867188 107.539062 C 193.898438 110.261719 196.722656 113.1875 199.339844 116.316406 C 214.113281 131.046875 229.378906 146.203125 263.234375 146.203125 C 272.871094 146.40625 282.261719 144.980469 291.402344 141.925781 C 288.898438 141.566406 286.414062 141.085938 283.957031 140.480469 C 280.070312 139.253906 276.289062 137.757812 272.613281 135.992188 C 268.941406 134.226562 265.410156 132.210938 262.023438 129.941406 C 258.632812 127.675781 255.425781 125.179688 252.394531 122.453125 C 249.359375 119.730469 246.539062 116.804688 243.921875 113.675781 C 228.460938 98.296875 213.882812 83.789062 180.023438 83.789062 C 170.386719 83.585938 161 85.011719 151.855469 88.066406 Z M 151.855469 88.066406 " fill-opacity="1" fill-rule="nonzero"/></svg>