<svg xmlns="http://www.w3.org/2000/svg" xmlns:xlink="http://www.w3.org/1999/xlink" width="500" zoomAndPan="magnify" viewBox="0 0 375 374.999991" height="500" preserveAspectRatio="xMidYMid meet" version="1.0"><path fill="#ef4b62" d="M 169.890625 256.359375 C 170.65625 254.535156 171.046875 252.582031 171.046875 250.609375 L 171.046875 108.726562 C 171.046875 100.460938 164.242188 93.75 155.824219 93.75 L 108.929688 93.75 C 100.550781 93.75 93.75 100.46875 93.75 108.726562 L 93.75 250.609375 C 93.753906 254.585938 95.355469 258.394531 98.199219 261.210938 C 101.042969 264.023438 104.902344 265.609375 108.929688 265.625 L 155.824219 265.625 C 157.824219 265.628906 159.804688 265.242188 161.652344 264.484375 C 163.5 263.734375 165.179688 262.625 166.59375 261.234375 C 168.003906 259.835938 169.125 258.179688 169.890625 256.359375 Z M 169.890625 256.359375 " fill-opacity="1" fill-rule="nonzero"/><path fill="#ef4b62" d="M 276.804688 198.710938 C 279.648438 195.898438 281.25 192.085938 281.25 188.109375 L 281.25 108.726562 C 281.25 100.460938 274.441406 93.75 266.070312 93.75 L 219.175781 93.75 C 210.804688 93.75 203.953125 100.46875 203.953125 108.726562 L 203.953125 188.109375 C 203.960938 192.089844 205.5625 195.90625 208.417969 198.722656 C 211.269531 201.539062 215.140625 203.121094 219.175781 203.125 L 266.070312 203.125 C 270.097656 203.113281 273.960938 201.527344 276.804688 198.710938 Z M 276.804688 198.710938 " fill-opacity="1" fill-rule="nonzero"/><path fill="#ef4b62" d="M 269.660156 44.265625 C 215.496094 38.210938 159.503906 38.210938 105.339844 44.265625 C 73.902344 47.78125 48.523438 72.546875 44.824219 104.148438 C 38.347656 159.527344 38.347656 215.472656 44.824219 270.851562 C 48.523438 302.453125 73.902344 327.222656 105.339844 330.734375 C 159.503906 336.789062 215.496094 336.789062 269.660156 330.734375 C 301.097656 327.222656 326.476562 302.453125 330.175781 270.851562 C 336.652344 215.472656 336.652344 159.527344 330.175781 104.148438 C 326.476562 72.546875 301.097656 47.78125 269.660156 44.265625 Z M 107.945312 67.558594 C 160.378906 61.699219 214.621094 61.699219 267.054688 67.558594 C 287.839844 69.882812 304.488281 86.28125 306.898438 106.871094 C 313.164062 160.441406 313.164062 214.558594 306.898438 268.132812 C 304.488281 288.71875 287.839844 305.121094 267.054688 307.441406 C 214.621094 313.304688 160.378906 313.304688 107.945312 307.441406 C 87.160156 305.121094 70.511719 288.71875 68.105469 268.132812 C 61.839844 214.558594 61.839844 160.441406 68.105469 106.871094 C 70.511719 86.28125 87.160156 69.882812 107.945312 67.558594 Z M 107.945312 67.558594 " fill-opacity="1" fill-rule="evenodd"/></svg>