<svg xmlns="http://www.w3.org/2000/svg" xmlns:xlink="http://www.w3.org/1999/xlink" width="500" zoomAndPan="magnify" viewBox="0 0 375 374.999991" height="500" preserveAspectRatio="xMidYMid meet" version="1.0"><defs><clipPath id="3e7875865e"><path d="M 7.558594 8.980469 L 367.558594 8.980469 L 367.558594 368.980469 L 7.558594 368.980469 Z M 7.558594 8.980469 " clip-rule="nonzero"/></clipPath></defs><g clip-path="url(#3e7875865e)"><path fill="#ef4b62" d="M 7.558594 368.652344 L 367.230469 368.652344 L 367.230469 8.980469 L 7.558594 8.980469 Z M 7.558594 368.652344 " fill-opacity="1" fill-rule="nonzero"/></g><path fill="#262626" d="M 87.082031 189.996094 L 86.96875 204.734375 L 133.78125 204.734375 L 133.78125 337.757812 L 166.898438 337.757812 L 166.898438 204.734375 L 213.710938 204.734375 L 213.710938 190.292969 C 213.710938 182.296875 213.539062 175.609375 213.3125 175.441406 C 213.140625 175.21875 184.652344 175.105469 150.109375 175.160156 L 87.25 175.328125 Z M 87.082031 189.996094 " fill-opacity="1" fill-rule="nonzero"/><path fill="#262626" d="M 297.785156 174.921875 C 306.917969 177.199219 313.886719 181.257812 320.277344 187.875 C 323.578125 191.417969 328.496094 197.863281 328.890625 199.410156 C 329.003906 199.875 313.367188 210.367188 303.882812 216.257812 C 303.546875 216.480469 302.183594 214.992188 300.636719 212.714844 C 296.015625 205.972656 291.152344 203.0625 283.734375 202.558594 C 272.832031 201.8125 265.808594 207.515625 265.863281 217.058594 C 265.863281 219.851562 266.269531 221.511719 267.410156 223.785156 C 269.8125 228.761719 274.265625 231.726562 288.246094 237.78125 C 314 248.851562 325.011719 256.15625 331.871094 266.554688 C 339.511719 278.144531 341.226562 296.632812 336.027344 310.390625 C 330.324219 325.351562 316.160156 335.507812 296.238281 338.882812 C 290.070312 339.964844 275.460938 339.792969 268.828125 338.601562 C 254.386719 336.03125 240.6875 328.890625 232.242188 319.535156 C 228.925781 315.882812 222.480469 306.34375 222.871094 305.652344 C 223.054688 305.429688 224.53125 304.515625 226.1875 303.546875 C 227.789062 302.632812 233.84375 299.148438 239.550781 295.832031 L 249.875 289.847656 L 252.054688 293.039062 C 255.074219 297.660156 261.707031 303.996094 265.695312 306.117188 C 277.175781 312.160156 292.921875 311.300781 300.691406 304.347656 C 304.007812 301.3125 305.371094 298.179688 305.371094 293.558594 C 305.371094 289.382812 304.867188 287.558594 302.6875 284.425781 C 299.890625 280.421875 294.1875 277.050781 277.976562 270.039062 C 259.414062 262.042969 251.421875 257.070312 244.113281 249.1875 C 239.886719 244.621094 235.894531 237.316406 234.238281 231.203125 C 232.859375 226.132812 232.523438 213.402344 233.605469 208.261719 C 237.441406 190.335938 250.972656 177.828125 270.484375 174.121094 C 276.824219 172.925781 291.5625 173.375 297.785156 174.921875 Z M 297.785156 174.921875 " fill-opacity="1" fill-rule="nonzero"/></svg>