<svg xmlns="http://www.w3.org/2000/svg" xmlns:xlink="http://www.w3.org/1999/xlink" width="500" zoomAndPan="magnify" viewBox="0 0 375 374.999991" height="500" preserveAspectRatio="xMidYMid meet" version="1.0"><defs><clipPath id="74bb381709"><path d="M 27 346 L 28 346 L 28 347.652344 L 27 347.652344 Z M 27 346 " clip-rule="nonzero"/></clipPath><clipPath id="445b6de81d"><path d="M 12.769531 27.402344 L 361 27.402344 L 361 339 L 12.769531 339 Z M 12.769531 27.402344 " clip-rule="nonzero"/></clipPath></defs><g clip-path="url(#74bb381709)"><path fill="#ef4b62" d="M 27.777344 347.117188 L 27.761719 347 L 27.746094 346.957031 Z M 27.777344 347.117188 " fill-opacity="1" fill-rule="nonzero"/></g><path fill="#262626" d="M 22.996094 38.269531 L 186.769531 320.789062 L 350.546875 38.269531 L 285.03125 38.269531 L 186.769531 207.78125 L 87.683594 38.269531 Z M 22.996094 38.269531 " fill-opacity="1" fill-rule="nonzero"/><path fill="#ef4b62" d="M 87.683594 38.269531 L 186.769531 208.609375 L 285.046875 38.269531 L 224.441406 38.269531 L 186.769531 103.785156 L 148.277344 38.269531 Z M 87.683594 38.269531 " fill-opacity="1" fill-rule="nonzero"/><g clip-path="url(#445b6de81d)"><path fill="#ef4b62" d="M 186.769531 338.902344 C 182.84375 338.902344 179.222656 336.785156 177.296875 333.367188 L 14.300781 43.671875 C 12.417969 40.3125 12.449219 36.183594 14.390625 32.851562 C 16.34375 29.519531 19.910156 27.476562 23.777344 27.476562 L 85.613281 27.476562 C 86.003906 27.429688 86.425781 27.402344 86.84375 27.402344 L 148.289062 27.402344 C 152.1875 27.402344 155.765625 29.488281 157.707031 32.851562 L 186.769531 83.386719 L 215.878906 32.851562 C 217.820312 29.488281 221.414062 27.402344 225.296875 27.402344 L 286.738281 27.402344 C 287.203125 27.402344 287.652344 27.429688 288.101562 27.488281 L 349.765625 27.488281 C 353.632812 27.488281 357.195312 29.546875 359.136719 32.863281 C 361.078125 36.195312 361.121094 40.324219 359.226562 43.6875 L 196.230469 333.367188 C 194.320312 336.785156 190.695312 338.902344 186.769531 338.902344 Z M 42.367188 49.207031 L 186.769531 305.882812 L 331.175781 49.222656 L 286.695312 49.222656 C 286.234375 49.222656 285.785156 49.191406 285.335938 49.136719 L 231.582031 49.136719 L 196.1875 110.578125 C 194.246094 113.957031 190.652344 116.027344 186.769531 116.027344 C 182.875 116.027344 179.296875 113.941406 177.351562 110.578125 L 142.003906 49.136719 L 88.078125 49.136719 C 87.683594 49.179688 87.265625 49.207031 86.84375 49.207031 Z M 42.367188 49.207031 " fill-opacity="1" fill-rule="nonzero"/></g></svg>