<svg xmlns="http://www.w3.org/2000/svg" xmlns:xlink="http://www.w3.org/1999/xlink" width="500" zoomAndPan="magnify" viewBox="0 0 375 374.999991" height="500" preserveAspectRatio="xMidYMid meet" version="1.0"><defs><clipPath id="c047a943ed"><path d="M 52.65625 9 L 153 9 L 153 374.902344 L 52.65625 374.902344 Z M 52.65625 9 " clip-rule="nonzero"/></clipPath><clipPath id="1b5ca4ef62"><path d="M 201 7.402344 L 301.65625 7.402344 L 301.65625 373 L 201 373 Z M 201 7.402344 " clip-rule="nonzero"/></clipPath></defs><g clip-path="url(#c047a943ed)"><path fill="#ef4b62" d="M 69.078125 325.851562 C 69.078125 311.222656 82.511719 205.976562 89.226562 161.277344 C 82.511719 161.277344 67.734375 152.746094 62.359375 142.992188 C 56.988281 133.242188 55.644531 132.832031 55.644531 130.800781 C 55.644531 90.164062 48.925781 19.554688 55.644531 13.460938 C 62.359375 7.363281 69.078125 13.460938 69.078125 19.554688 L 69.078125 94.226562 C 69.078125 100.324219 71.597656 106.421875 82.511719 106.421875 C 93.425781 106.421875 95.945312 94.226562 95.945312 94.226562 L 95.945312 13.460938 C 95.945312 7.367188 109.378906 9.398438 109.378906 13.460938 L 109.378906 94.226562 C 109.378906 106.414062 116.097656 106.421875 122.8125 106.421875 C 129.53125 106.417969 136.246094 100.324219 136.246094 94.226562 L 136.246094 13.460938 C 136.246094 8.585938 149.679688 7.363281 149.679688 13.460938 L 149.679688 39.367188 C 151.917969 75.941406 155.105469 132.367188 149.679688 142.988281 C 143.292969 155.503906 125.050781 161.277344 122.8125 161.277344 C 127.289062 208.007812 136.246094 316.097656 136.246094 325.851562 C 136.246094 338.042969 129.53125 362.421875 122.8125 368.515625 C 116.097656 374.613281 109.378906 374.613281 95.949219 374.613281 L 95.945312 374.613281 C 80.925781 374.613281 69.078125 357.316406 69.078125 338.042969 Z M 69.078125 325.851562 " fill-opacity="1" fill-rule="nonzero"/></g><g clip-path="url(#1b5ca4ef62)"><path fill="#ef4b62" d="M 253.4375 368.753906 C 237.363281 362.527344 237.363281 343.851562 237.363281 331.402344 C 237.363281 320.261719 240.042969 244.246094 245.402344 206.894531 L 229.328125 194.445312 C 221.292969 188.21875 213.253906 181.996094 205.21875 169.542969 C 197.179688 157.09375 205.21875 94.84375 205.21875 82.390625 C 205.21875 69.941406 221.292969 38.816406 237.363281 26.363281 C 247.53125 18.488281 285.585938 9.765625 301.65625 7.6875 L 301.65625 337.628906 C 301.65625 352.566406 296.300781 366.675781 293.621094 368.753906 C 277.546875 374.976562 266.296875 373.734375 253.4375 368.753906 Z M 253.4375 368.753906 " fill-opacity="1" fill-rule="nonzero"/></g></svg>