<svg width="84" height="124" viewBox="0 0 84 124" fill="none" xmlns="http://www.w3.org/2000/svg">
<path d="M5.53906 107.521C5.53906 102.577 10.0709 67.0097 12.3369 51.9038C10.071 51.9039 5.08591 49.0212 3.27313 45.7254C1.46036 42.4295 1.00711 42.2913 1.00711 41.6047C1.00711 27.872 -1.25888 4.0104 1.00709 1.95015C3.27306 -0.110105 5.53899 1.95015 5.53899 4.01005L5.53905 29.2453C5.5391 31.3061 6.38884 33.366 10.071 33.366C13.7532 33.366 14.6029 29.2453 14.6029 29.2453L14.6029 1.95063C14.6029 -0.108401 19.1348 0.577361 19.1348 1.95063L19.1348 29.2453C19.1348 33.3642 21.4009 33.3668 23.6668 33.366C25.9327 33.3651 28.1987 31.3052 28.1987 29.2453L28.1987 1.95089C28.1987 0.302973 32.7306 -0.109363 32.7306 1.95089L32.7306 10.7059C33.486 23.0653 34.5603 42.1338 32.7307 45.7239C30.5753 49.9531 24.4221 51.9038 23.6668 51.9038C25.1774 67.6964 28.1987 104.225 28.1987 107.521C28.1987 111.641 25.9327 119.88 23.6668 121.94C21.401 124 19.1353 124 14.6043 124H14.6029C9.53607 124 5.53906 118.155 5.53906 111.641V107.521Z" fill="#EF4B62"/>
<path d="M67.7331 122.02C62.3108 119.916 62.3108 113.604 62.3107 109.397C62.3107 105.633 63.2145 79.9438 65.0219 67.3211L59.5995 63.1135C56.8884 61.0097 54.1772 58.9059 51.4661 54.6984C48.7549 50.4908 51.4661 29.453 51.4661 25.2454C51.4661 21.0379 56.8885 10.5189 62.3107 6.31136C65.7401 3.65024 78.5777 0.701262 84 0L84 111.501C84 116.55 82.1926 121.318 81.2889 122.02C75.8665 124.123 72.0709 123.703 67.7331 122.02Z" fill="#EF4B62"/>
</svg>
