<svg width="62" height="103" viewBox="0 0 62 103" fill="none" xmlns="http://www.w3.org/2000/svg">
<path d="M4.08835 89.3116C4.08835 85.2051 7.43332 55.6613 9.10582 43.1136C7.43333 43.1137 3.75388 40.7192 2.41588 37.9815C1.07788 35.2439 0.743345 35.1291 0.743345 34.5587C0.743345 23.1518 -0.92917 3.33122 0.743329 1.61988C2.41583 -0.0914582 4.0883 1.61988 4.0883 3.33092L4.08834 24.2925C4.08838 26.0042 4.71557 27.7153 7.43338 27.7153C10.1512 27.7153 10.7784 24.2925 10.7784 24.2925L10.7784 1.62028C10.7784 -0.0900429 14.1233 0.479582 14.1233 1.62028L14.1233 24.2925C14.1233 27.7138 15.7959 27.716 17.4683 27.7153C19.1408 27.7146 20.8133 26.0035 20.8133 24.2925L20.8133 1.6205C20.8133 0.251663 24.1583 -0.090842 24.1583 1.6205L24.1583 8.89278C24.7158 19.159 25.5088 34.9983 24.1583 37.9803C22.5675 41.4933 18.0258 43.1136 17.4683 43.1136C18.5833 56.2316 20.8133 86.5742 20.8133 89.3118C20.8133 92.7339 19.1408 99.5781 17.4683 101.289C15.796 103 14.1237 103 10.7794 103H10.7784C7.03853 103 4.08835 98.1447 4.08835 92.7337V89.3116Z" fill="#EF4B62"/>
<path d="M49.9935 101.355C45.9913 99.6074 45.9913 94.3649 45.9913 90.8699C45.9913 87.7439 46.6583 66.405 47.9924 55.92L43.9901 52.4249C41.989 50.6774 39.9879 48.9299 37.9869 45.435C35.9858 41.94 37.9869 24.465 37.9869 20.97C37.9869 17.475 41.9891 8.73749 45.9912 5.2425C48.5224 3.03205 57.9978 0.5825 62 0L62 92.6174C62 96.8114 60.6659 100.772 59.9989 101.355C55.9967 103.102 53.1952 102.753 49.9935 101.355Z" fill="#EF4B62"/>
</svg>
