<svg width="119" height="151" viewBox="0 0 119 151" fill="none" xmlns="http://www.w3.org/2000/svg">
<g filter="url(#filter0_d_31_22)">
<path d="M94.4359 39.5486C97.914 39.7557 104.994 42.5687 108.1 43.9493L114 42.655V44.4671L109.652 44.9848C109.445 45.1574 109.156 45.8132 109.652 47.0558C110.149 48.2983 110.481 49.4719 110.584 49.9033C107.996 52.3194 102.386 57.1516 100.647 57.1516C98.4729 57.1516 98.7835 56.1161 95.6781 53.7863C92.5726 51.4565 91.3305 50.421 88.5356 48.6089C85.7407 46.7969 82.7134 47.5878 80.4615 49.6493C77.3561 52.492 73.993 54.855 73.6296 60.004C73.3191 64.4048 75.6665 64.3933 80.151 66.7297C85.1196 69.3184 91.3305 71.6482 95.6781 74.7546C100.026 77.861 98.1624 82.0029 98.7835 86.9214C98.9332 88.1073 98.9551 89.5504 98.9069 91.0634M94.4359 39.5486C90.0883 39.2897 89.4672 38.5131 85.7407 38.5131C82.0142 38.5131 76.1139 39.2897 73.3191 39.5486C70.5242 39.8075 67.1082 42.9139 65.245 43.9493C63.7544 44.7777 61.5185 47.7461 60.5869 49.1267M94.4359 39.5486L97.8519 38.2542C98.0589 37.3914 98.2866 35.1478 97.5413 33.0769C96.796 31.0059 94.7464 30.4882 93.8148 30.4882L86.9829 25.3108C86.9829 24.8794 87.3556 23.7059 88.8462 22.4633C90.3367 21.2207 98.5764 18.3214 102.51 17.0271C103.028 17.9762 104.249 19.8228 104.994 19.6157C105.74 19.4086 105.719 19.0117 105.615 18.8391L104.063 16.5093L107.168 16.2505V12.3674L105.615 12.1086L106.236 6.41347C105.408 6.49976 103.938 6.77588 104.684 7.19007C105.429 7.60426 104.373 11.332 103.752 13.144L98.4729 15.215L96.9202 11.0731L96.2991 10.8142V15.7327L81.7037 22.2044L77.9772 22.4633L74.2507 22.2044L75.8034 20.6512C77.6667 17.89 81.6416 12.0568 82.6353 10.8142C83.629 9.57166 85.9478 5.29171 86.9829 3.30705L86.3618 2.78931L84.188 2.53045C81.9107 5.55057 77.0456 12.1603 75.8034 14.4384C74.2507 17.2859 67.4188 22.981 64.3134 23.4988C61.829 23.913 57.4815 25.7423 55.6182 26.6052M6.55271 83.5562C6.05585 83.7633 5.82811 86.49 6.24217 88.4747C7.79487 92.3577 10.155 100.538 10.9003 102.195C11.6456 103.851 15.9725 108.321 17.1111 109.702L22.7009 115.397L36.6752 126.269L48.1652 134.035C53.1339 136.452 62.6986 140.714 64.9345 141.543C67.1704 142.371 72.8015 141.888 74.5612 141.543L74.5961 141.519C76.3662 140.304 79.793 137.951 82.0142 135.071C84.8091 131.447 86.6724 128.34 89.4672 122.904C91.7031 118.555 95.9886 106.164 98.1624 100.383C98.307 98.4536 98.7952 94.5704 98.9069 91.0634M6.55271 83.5562C7.1738 83.2973 9.03704 84.0739 10.9003 83.5562C13.6952 82.7796 17.7322 79.4143 19.906 78.1199C21.645 77.0845 23.043 75.2724 24.2536 73.9781C29.0152 68.887 34.1909 60.258 34.1909 56.6339C34.1909 53.2946 35.226 51.5428 35.433 51.4565C36.6752 48.6953 39.6564 42.3444 41.6439 39.0309C43.6313 35.7173 48.6828 31.0922 50.9601 29.1939L55.6182 26.6052M6.55271 83.5562C6.03514 81.3127 5 75.6866 5 71.1305C5 65.4354 11.5214 45.7614 16.1795 42.655C20.8376 39.5486 29.2222 33.0769 31.0855 29.1939C32.9487 25.3108 32.0171 17.0271 30.1538 13.144C28.6632 10.0376 26.8414 7.88039 26.1168 7.19007C28.3941 5.98202 33.1972 3.15173 34.1909 1.49497C35.433 -0.575973 37.9174 4.34252 39.7806 7.19007C41.2712 9.46811 42.1614 13.8344 42.4202 15.7327L44.7493 18.8391C47.9582 18.5803 54.3761 17.7001 54.3761 16.2505C54.3761 14.8008 55.2042 22.5496 55.6182 26.6052M93.8148 53.7863C92.5726 57.1516 90.7094 57.9282 92.2621 60.5169C93.8148 63.1056 94.4359 64.141 97.5413 66.7297C100.647 69.3184 100.957 68.283 102.51 71.1305C103.752 73.4085 103.028 80.8812 102.51 84.3328L98.9069 91.0634M68.9715 21.1689C68.9715 20.5649 68.2883 19.2015 65.5555 18.5802C62.8228 17.959 59.2412 17.2859 57.792 17.027V14.6972C59.0342 14.5246 62.0775 14.3348 64.3134 14.9561C66.5493 15.5774 70.0066 17.6311 71.4558 18.5802C71.2488 18.0625 70.8969 16.6129 71.1453 14.9561C71.3937 13.2994 71.8699 11.5046 72.0769 10.8142H73.3191L76.4245 13.9207" stroke="#EF4B62" stroke-width="2" shape-rendering="crispEdges"/>
</g>
<defs>
<filter id="filter0_d_31_22" x="0" y="-0.000244141" width="119" height="151" filterUnits="userSpaceOnUse" color-interpolation-filters="sRGB">
<feFlood flood-opacity="0" result="BackgroundImageFix"/>
<feColorMatrix in="SourceAlpha" type="matrix" values="0 0 0 0 0 0 0 0 0 0 0 0 0 0 0 0 0 0 127 0" result="hardAlpha"/>
<feOffset dy="4"/>
<feGaussianBlur stdDeviation="2"/>
<feComposite in2="hardAlpha" operator="out"/>
<feColorMatrix type="matrix" values="0 0 0 0 0 0 0 0 0 0 0 0 0 0 0 0 0 0 0.25 0"/>
<feBlend mode="normal" in2="BackgroundImageFix" result="effect1_dropShadow_31_22"/>
<feBlend mode="normal" in="SourceGraphic" in2="effect1_dropShadow_31_22" result="shape"/>
</filter>
</defs>
</svg>
