<svg xmlns="http://www.w3.org/2000/svg" xmlns:xlink="http://www.w3.org/1999/xlink" width="500" zoomAndPan="magnify" viewBox="0 0 375 374.999991" height="500" preserveAspectRatio="xMidYMid meet" version="1.0"><defs><clipPath id="5339a6504e"><path d="M 47.378906 0 L 86 0 L 86 36 L 47.378906 36 Z M 47.378906 0 " clip-rule="nonzero"/></clipPath><clipPath id="ddb391cc65"><path d="M 99 14 L 345.128906 14 L 345.128906 25 L 99 25 Z M 99 14 " clip-rule="nonzero"/></clipPath><clipPath id="f8ddbdc792"><path d="M 47.378906 147 L 86 147 L 86 183 L 47.378906 183 Z M 47.378906 147 " clip-rule="nonzero"/></clipPath><clipPath id="f7f6f96e70"><path d="M 99 161 L 345.128906 161 L 345.128906 172 L 99 172 Z M 99 161 " clip-rule="nonzero"/></clipPath><clipPath id="c02d55d9e4"><path d="M 47.378906 99 L 86 99 L 86 134 L 47.378906 134 Z M 47.378906 99 " clip-rule="nonzero"/></clipPath><clipPath id="24190964ef"><path d="M 99 113 L 345.128906 113 L 345.128906 124 L 99 124 Z M 99 113 " clip-rule="nonzero"/></clipPath><clipPath id="5f1a21e1fc"><path d="M 47.378906 48 L 86 48 L 86 84 L 47.378906 84 Z M 47.378906 48 " clip-rule="nonzero"/></clipPath><clipPath id="a432f1c944"><path d="M 99 62 L 345.128906 62 L 345.128906 74 L 99 74 Z M 99 62 " clip-rule="nonzero"/></clipPath><clipPath id="52c0e9745b"><path d="M 47.378906 192 L 86 192 L 86 228 L 47.378906 228 Z M 47.378906 192 " clip-rule="nonzero"/></clipPath><clipPath id="2a94d8b700"><path d="M 99 206 L 345.128906 206 L 345.128906 217 L 99 217 Z M 99 206 " clip-rule="nonzero"/></clipPath><clipPath id="1d11ab8999"><path d="M 47.378906 339 L 86 339 L 86 375 L 47.378906 375 Z M 47.378906 339 " clip-rule="nonzero"/></clipPath><clipPath id="97831f0e72"><path d="M 99 353 L 345.128906 353 L 345.128906 365 L 99 365 Z M 99 353 " clip-rule="nonzero"/></clipPath><clipPath id="c0fab3b244"><path d="M 47.378906 291 L 86 291 L 86 327 L 47.378906 327 Z M 47.378906 291 " clip-rule="nonzero"/></clipPath><clipPath id="899df0cb79"><path d="M 99 305 L 345.128906 305 L 345.128906 316 L 99 316 Z M 99 305 " clip-rule="nonzero"/></clipPath><clipPath id="6fccb944f9"><path d="M 47.378906 241 L 86 241 L 86 276 L 47.378906 276 Z M 47.378906 241 " clip-rule="nonzero"/></clipPath><clipPath id="27c8838621"><path d="M 99 255 L 345.128906 255 L 345.128906 266 L 99 266 Z M 99 255 " clip-rule="nonzero"/></clipPath></defs><g clip-path="url(#5339a6504e)"><path fill="#ef4b62" d="M 85.464844 17.738281 C 85.464844 27.304688 76.9375 35.0625 66.421875 35.0625 C 55.90625 35.0625 47.378906 27.304688 47.378906 17.738281 C 47.378906 8.171875 55.90625 0.414062 66.421875 0.414062 C 76.9375 0.414062 85.464844 8.171875 85.464844 17.738281 Z M 85.464844 17.738281 " fill-opacity="1" fill-rule="nonzero"/></g><g clip-path="url(#ddb391cc65)"><path fill="#ef4b62" d="M 99.3125 14.273438 L 345.128906 14.273438 L 345.128906 24.667969 L 99.3125 24.667969 Z M 99.3125 14.273438 " fill-opacity="1" fill-rule="nonzero"/></g><g clip-path="url(#f8ddbdc792)"><path fill="#ef4b62" d="M 85.464844 164.980469 C 85.464844 174.546875 76.9375 182.304688 66.421875 182.304688 C 55.90625 182.304688 47.378906 174.546875 47.378906 164.980469 C 47.378906 155.414062 55.90625 147.65625 66.421875 147.65625 C 76.9375 147.65625 85.464844 155.414062 85.464844 164.980469 Z M 85.464844 164.980469 " fill-opacity="1" fill-rule="nonzero"/></g><g clip-path="url(#f7f6f96e70)"><path fill="#ef4b62" d="M 99.3125 161.515625 L 345.128906 161.515625 L 345.128906 171.910156 L 99.3125 171.910156 Z M 99.3125 161.515625 " fill-opacity="1" fill-rule="nonzero"/></g><g clip-path="url(#c02d55d9e4)"><path fill="#ef4b62" d="M 85.464844 116.476562 C 85.464844 126.042969 76.9375 133.800781 66.421875 133.800781 C 55.90625 133.800781 47.378906 126.042969 47.378906 116.476562 C 47.378906 106.910156 55.90625 99.15625 66.421875 99.15625 C 76.9375 99.15625 85.464844 106.910156 85.464844 116.476562 Z M 85.464844 116.476562 " fill-opacity="1" fill-rule="nonzero"/></g><g clip-path="url(#24190964ef)"><path fill="#ef4b62" d="M 99.3125 113.011719 L 345.128906 113.011719 L 345.128906 123.40625 L 99.3125 123.40625 Z M 99.3125 113.011719 " fill-opacity="1" fill-rule="nonzero"/></g><g clip-path="url(#5f1a21e1fc)"><path fill="#ef4b62" d="M 85.464844 66.242188 C 85.464844 75.808594 76.9375 83.5625 66.421875 83.5625 C 55.90625 83.5625 47.378906 75.808594 47.378906 66.242188 C 47.378906 56.675781 55.90625 48.917969 66.421875 48.917969 C 76.9375 48.917969 85.464844 56.675781 85.464844 66.242188 Z M 85.464844 66.242188 " fill-opacity="1" fill-rule="nonzero"/></g><g clip-path="url(#a432f1c944)"><path fill="#ef4b62" d="M 99.3125 62.777344 L 345.128906 62.777344 L 345.128906 73.171875 L 99.3125 73.171875 Z M 99.3125 62.777344 " fill-opacity="1" fill-rule="nonzero"/></g><g clip-path="url(#52c0e9745b)"><path fill="#ef4b62" d="M 85.464844 210.019531 C 85.464844 219.585938 76.9375 227.34375 66.421875 227.34375 C 55.90625 227.34375 47.378906 219.585938 47.378906 210.019531 C 47.378906 200.453125 55.90625 192.695312 66.421875 192.695312 C 76.9375 192.695312 85.464844 200.453125 85.464844 210.019531 Z M 85.464844 210.019531 " fill-opacity="1" fill-rule="nonzero"/></g><g clip-path="url(#2a94d8b700)"><path fill="#ef4b62" d="M 99.3125 206.554688 L 345.128906 206.554688 L 345.128906 216.949219 L 99.3125 216.949219 Z M 99.3125 206.554688 " fill-opacity="1" fill-rule="nonzero"/></g><g clip-path="url(#1d11ab8999)"><path fill="#ef4b62" d="M 85.464844 357.261719 C 85.464844 366.828125 76.9375 374.585938 66.421875 374.585938 C 55.90625 374.585938 47.378906 366.828125 47.378906 357.261719 C 47.378906 347.695312 55.90625 339.9375 66.421875 339.9375 C 76.9375 339.9375 85.464844 347.695312 85.464844 357.261719 Z M 85.464844 357.261719 " fill-opacity="1" fill-rule="nonzero"/></g><g clip-path="url(#97831f0e72)"><path fill="#ef4b62" d="M 99.3125 353.796875 L 345.128906 353.796875 L 345.128906 364.191406 L 99.3125 364.191406 Z M 99.3125 353.796875 " fill-opacity="1" fill-rule="nonzero"/></g><g clip-path="url(#c0fab3b244)"><path fill="#ef4b62" d="M 85.464844 308.757812 C 85.464844 318.324219 76.9375 326.082031 66.421875 326.082031 C 55.90625 326.082031 47.378906 318.324219 47.378906 308.757812 C 47.378906 299.191406 55.90625 291.4375 66.421875 291.4375 C 76.9375 291.4375 85.464844 299.191406 85.464844 308.757812 Z M 85.464844 308.757812 " fill-opacity="1" fill-rule="nonzero"/></g><g clip-path="url(#899df0cb79)"><path fill="#ef4b62" d="M 99.3125 305.292969 L 345.128906 305.292969 L 345.128906 315.6875 L 99.3125 315.6875 Z M 99.3125 305.292969 " fill-opacity="1" fill-rule="nonzero"/></g><g clip-path="url(#6fccb944f9)"><path fill="#ef4b62" d="M 85.464844 258.523438 C 85.464844 268.089844 76.9375 275.84375 66.421875 275.84375 C 55.90625 275.84375 47.378906 268.089844 47.378906 258.523438 C 47.378906 248.957031 55.90625 241.199219 66.421875 241.199219 C 76.9375 241.199219 85.464844 248.957031 85.464844 258.523438 Z M 85.464844 258.523438 " fill-opacity="1" fill-rule="nonzero"/></g><g clip-path="url(#27c8838621)"><path fill="#ef4b62" d="M 99.3125 255.058594 L 345.128906 255.058594 L 345.128906 265.453125 L 99.3125 265.453125 Z M 99.3125 255.058594 " fill-opacity="1" fill-rule="nonzero"/></g></svg>