<svg width="172" height="105" viewBox="0 0 172 105" fill="none" xmlns="http://www.w3.org/2000/svg">
<path d="M22 10C22 15.5228 17.0751 20 11 20C4.92487 20 0 15.5228 0 10C0 4.47715 4.92487 0 11 0C17.0751 0 22 4.47715 22 10Z" fill="#EF4B62"/>
<path d="M30 8H172V14H30V8Z" fill="#EF4B62"/>
<path d="M22 95C22 100.523 17.0751 105 11 105C4.92487 105 0 100.523 0 95C0 89.4772 4.92487 85 11 85C17.0751 85 22 89.4772 22 95Z" fill="#EF4B62"/>
<path d="M30 93H172V99H30V93Z" fill="#EF4B62"/>
<path d="M22 67C22 72.5228 17.0751 77 11 77C4.92487 77 0 72.5228 0 67C0 61.4772 4.92487 57 11 57C17.0751 57 22 61.4772 22 67Z" fill="#EF4B62"/>
<path d="M30 65H172V71H30V65Z" fill="#EF4B62"/>
<path d="M22 38C22 43.5228 17.0751 48 11 48C4.92487 48 0 43.5228 0 38C0 32.4772 4.92487 28 11 28C17.0751 28 22 32.4772 22 38Z" fill="#EF4B62"/>
<path d="M30 36H172V42H30V36Z" fill="#EF4B62"/>
</svg>
