<svg width="172" height="216" viewBox="0 0 172 216" fill="none" xmlns="http://www.w3.org/2000/svg">
<path d="M22 10C22 15.5228 17.0751 20 11 20C4.92487 20 0 15.5228 0 10C0 4.47715 4.92487 0 11 0C17.0751 0 22 4.47715 22 10Z" fill="#EF4B62"/>
<path d="M30 8H172V14H30V8Z" fill="#EF4B62"/>
<path d="M22 95C22 100.523 17.0751 105 11 105C4.92487 105 0 100.523 0 95C0 89.4771 4.92487 85 11 85C17.0751 85 22 89.4771 22 95Z" fill="#EF4B62"/>
<path d="M30 93H172V99H30V93Z" fill="#EF4B62"/>
<path d="M22 67C22 72.5229 17.0751 77 11 77C4.92487 77 0 72.5229 0 67C0 61.4772 4.92487 57 11 57C17.0751 57 22 61.4772 22 67Z" fill="#EF4B62"/>
<path d="M30 65H172V71H30V65Z" fill="#EF4B62"/>
<path d="M22 38C22 43.5228 17.0751 48 11 48C4.92487 48 0 43.5228 0 38C0 32.4772 4.92487 28 11 28C17.0751 28 22 32.4772 22 38Z" fill="#EF4B62"/>
<path d="M30 36H172V42H30V36Z" fill="#EF4B62"/>
<path d="M22 121C22 126.523 17.0751 131 11 131C4.92487 131 0 126.523 0 121C0 115.477 4.92487 111 11 111C17.0751 111 22 115.477 22 121Z" fill="#EF4B62"/>
<path d="M30 119H172V125H30V119Z" fill="#EF4B62"/>
<path d="M22 206C22 211.523 17.0751 216 11 216C4.92487 216 0 211.523 0 206C0 200.477 4.92487 196 11 196C17.0751 196 22 200.477 22 206Z" fill="#EF4B62"/>
<path d="M30 204H172V210H30V204Z" fill="#EF4B62"/>
<path d="M22 178C22 183.523 17.0751 188 11 188C4.92487 188 0 183.523 0 178C0 172.477 4.92487 168 11 168C17.0751 168 22 172.477 22 178Z" fill="#EF4B62"/>
<path d="M30 176H172V182H30V176Z" fill="#EF4B62"/>
<path d="M22 149C22 154.523 17.0751 159 11 159C4.92487 159 0 154.523 0 149C0 143.477 4.92487 139 11 139C17.0751 139 22 143.477 22 149Z" fill="#EF4B62"/>
<path d="M30 147H172V153H30V147Z" fill="#EF4B62"/>
</svg>
